<svg id="Layer_1" data-name="Layer 1" xmlns="http://www.w3.org/2000/svg" xmlns:xlink="http://www.w3.org/1999/xlink" viewBox="0 0 1920 1080"><defs><style>.cls-1{opacity:0.5;}.cls-2{fill:url(#linear-gradient);}.cls-3{fill:url(#linear-gradient-2);}</style><linearGradient id="linear-gradient" x1="314.1" y1="1247.67" x2="2118.15" y2="1247.67" gradientUnits="userSpaceOnUse"><stop offset="0" stop-color="#fff"/><stop offset="0.71" stop-color="#008a73" stop-opacity="0.5"/></linearGradient><linearGradient id="linear-gradient-2" x1="-10.56" y1="948.82" x2="1934.64" y2="948.82" gradientTransform="translate(2106.28 1345.64) rotate(169.78)" gradientUnits="userSpaceOnUse"><stop offset="0" stop-color="#fff" stop-opacity="0.18"/><stop offset="0.84" stop-color="#008a73" stop-opacity="0.5"/></linearGradient></defs><path class="cls-2" d="M330,1136.08C436.7,544.57,1105.06,59.91,1602.66,250c385.86,147.4,565.06,660.82,503.66,1062.8C2018,1891.18,1404.2,2418.08,892.82,2258.28,475,2127.71,250.33,1577.75,330,1136.08Z"/><path class="cls-3" d="M164.89,1340.2C208.73,1426.45,1997.83,815.13,1949,414.62c-29.72-243.87-732-336.53-978.89-355C794.35,46.49,104.75-5.07-12.8,274.83c-117.67,280.19,400.72,743,220.43,1007.29C183.2,1317.93,159.68,1330,164.89,1340.2Z"/></svg>