<svg id="Layer_1" data-name="Layer 1" xmlns="http://www.w3.org/2000/svg" xmlns:xlink="http://www.w3.org/1999/xlink" viewBox="0 0 1920 100"><defs><style>.cls-1{fill:url(#linear-gradient);}.cls-2{fill:url(#linear-gradient-2);}.cls-3{fill:#999;}.cls-4{fill:#666;}.cls-5{fill:url(#linear-gradient-3);}.cls-6{fill:url(#linear-gradient-4);}.cls-7{fill:url(#linear-gradient-5);}.cls-8{fill:none;}.cls-9{fill:url(#linear-gradient-6);}.cls-10{fill:url(#linear-gradient-7);}.cls-11{fill:#b3b3b3;}.cls-12{fill:#f2f2f2;}.cls-13{fill:#e6e6e6;}.cls-14{fill:url(#linear-gradient-8);}.cls-15{fill:url(#linear-gradient-9);}</style><linearGradient id="linear-gradient" x1="79.25" y1="1028.16" x2="79.25" y2="843.96" gradientTransform="matrix(1, 0, 0, -1, 0, 1072.26)" gradientUnits="userSpaceOnUse"><stop offset="0" stop-opacity="0.4"/><stop offset="1" stop-color="#fff"/></linearGradient><linearGradient id="linear-gradient-2" x1="158.6" y1="935.06" x2="318.1" y2="935.06" gradientTransform="matrix(1, 0, 0, -1, 0, 1072.26)" gradientUnits="userSpaceOnUse"><stop offset="0" stop-color="#ccc"/><stop offset="1" stop-opacity="0.4"/></linearGradient><linearGradient id="linear-gradient-3" x1="158.3" y1="1005.91" x2="317.8" y2="1005.91" gradientTransform="matrix(1, 0, 0, -1, 0, 1072.26)" gradientUnits="userSpaceOnUse"><stop offset="0" stop-color="#fff"/><stop offset="1" stop-opacity="0.1"/></linearGradient><linearGradient id="linear-gradient-4" x1="395.35" y1="1076.96" x2="395.35" y2="934.96" xlink:href="#linear-gradient-3"/><linearGradient id="linear-gradient-5" x1="635.5" y1="935.06" x2="795" y2="935.06" gradientTransform="matrix(1, 0, 0, -1, 0, 1072.26)" gradientUnits="userSpaceOnUse"><stop offset="0" stop-color="#fff"/><stop offset="1" stop-color="#e6e6e6" stop-opacity="0.1"/></linearGradient><linearGradient id="linear-gradient-6" x1="715.35" y1="934.96" x2="715.35" y2="1076.96" gradientTransform="matrix(1, 0, 0, -1, 0, 1072.26)" gradientUnits="userSpaceOnUse"><stop offset="0" stop-color="#fff"/><stop offset="0.96" stop-color="#999" stop-opacity="0.13"/><stop offset="1" stop-color="#e6e6e6" stop-opacity="0.1"/></linearGradient><linearGradient id="linear-gradient-7" x1="1113.31" y1="1028.06" x2="1033.55" y2="889.91" gradientTransform="matrix(1, 0, 0, -1, 0, 1072.26)" gradientUnits="userSpaceOnUse"><stop offset="0" stop-color="#f2f2f2" stop-opacity="0.4"/><stop offset="1" stop-color="#fff"/></linearGradient><linearGradient id="linear-gradient-8" x1="554.85" y1="889.91" x2="475.09" y2="1028.05" xlink:href="#linear-gradient-3"/><linearGradient id="linear-gradient-9" x1="315.8" y1="935.86" x2="475.3" y2="935.86" xlink:href="#linear-gradient-3"/></defs><polygon class="cls-1" points="-0.5 136.2 159 228.3 159 44.1 -0.5 136.2"/><polygon class="cls-2" points="158.6 45.1 158.6 229.3 318.1 137.2 158.6 45.1"/><path class="cls-3" d="M75.1-4.3H71.2v.1h-5v-.1H32.7c0,.1.1.1.1.2h-5a.1.1,0,0,0-.1-.1H19.9v.1h-5v-.1H13.7a19.42,19.42,0,0,1-2.4.2h-3a14.81,14.81,0,0,0-1.9-.3,1.45,1.45,0,0,1-.7-.2H-.4V136.2L159.1,44.1Z"/><polyline class="cls-4" points="158.6 -4.4 158.6 45.1 244.3 -4.4"/><polyline class="cls-5" points="244.2 -4.5 158.3 45.1 317.8 137.2 317.8 -4.4"/><path class="cls-3" d="M75.6-4.4h0a.6.6,0,0,1-.4.1h-.6l84,48.5V-4.4Z"/><polyline class="cls-4" points="388.7 -4.5 475 45.3 475 -4.7"/><polyline class="cls-6" points="315.6 -4.5 315.6 137.3 475.1 45.2 388.8 -4.7"/><polyline class="cls-3" points="474.6 -4.7 474.6 45.3 560.4 -4.2"/><polygon class="cls-7" points="635.5 137.2 795 229.3 795 45.1 635.5 137.2"/><polygon class="cls-8" points="794.6 45.1 794.6 229.3 954.1 137.2 794.6 45.1"/><polyline class="cls-9" points="635.6 -4.7 635.6 137.3 795.1 45.2 709 -4.5"/><polygon class="cls-8" points="1113.1 44.1 1113.1 228.3 1272.6 136.2 1113.1 44.1"/><polygon class="cls-10" points="1113.3 44.2 953.8 136.3 1113.3 228.4 1113.3 44.2"/><polygon class="cls-8" points="1113.1 44.3 1272.6 136.4 1272.6 -47.8 1113.1 44.3"/><polyline class="cls-11" points="1032.8 -2.4 1113.3 43.7 1113.1 -4.7"/><polyline class="cls-12" points="953.8 -4.7 954.2 136 1113.4 43.5 1029 -5"/><polyline class="cls-3" points="1113 -4.7 1113.1 43.9 1194.3 -3.3"/><polyline class="cls-4" points="795.1 -4.7 795.1 45.2 881.2 -4.5"/><polyline class="cls-13" points="881.2 -4.7 795.1 45 954.6 137.1 954.6 -4.7"/><polyline class="cls-3" points="709.1 -4.7 795.3 45.1 795.3 -4.7"/><polygon class="cls-14" points="475.1 44.2 475.1 228.4 634.6 136.3 475.1 44.2"/><polygon class="cls-15" points="475.3 44.3 315.8 136.4 475.3 228.5 475.3 44.3"/><polyline class="cls-12" points="561.1 -4.7 476.1 44.4 635.6 136.5 635.6 -4.7"/><polygon class="cls-8" points="1919.4 196.3 1919.4 12.1 1759.9 104.2 1919.4 196.3"/></svg>