<svg id="Layer_1" data-name="Layer 1" xmlns="http://www.w3.org/2000/svg" xmlns:xlink="http://www.w3.org/1999/xlink" viewBox="0 0 800 1280"><defs><style>.cls-1{fill:url(#linear-gradient);}.cls-2{fill:none;}.cls-3{fill:url(#linear-gradient-2);}.cls-4{fill:url(#linear-gradient-3);}.cls-5{fill:url(#linear-gradient-4);}.cls-6{fill:url(#linear-gradient-5);}.cls-7{fill:#ccc;}.cls-8{fill:url(#linear-gradient-6);}.cls-9{fill:url(#linear-gradient-7);}.cls-10{fill:url(#linear-gradient-8);}.cls-11{fill:url(#linear-gradient-9);}.cls-12{fill:url(#linear-gradient-10);}.cls-13{fill:#f2f2f2;}.cls-14{fill:url(#linear-gradient-11);}.cls-15{fill:url(#linear-gradient-12);}.cls-16{fill:url(#linear-gradient-13);}.cls-17{fill:#e6e6e6;}.cls-18{fill:url(#linear-gradient-14);}.cls-19{fill:url(#linear-gradient-15);}.cls-20{fill:url(#linear-gradient-16);}.cls-21{fill:url(#linear-gradient-17);}.cls-22{fill:url(#linear-gradient-18);}.cls-23{fill:url(#linear-gradient-19);}.cls-24{fill:url(#linear-gradient-20);}.cls-25{fill:url(#linear-gradient-21);}.cls-26{fill:url(#linear-gradient-22);}.cls-27{fill:url(#linear-gradient-23);}.cls-28{fill:url(#linear-gradient-24);}.cls-29{fill:url(#linear-gradient-25);}.cls-30{fill:url(#linear-gradient-26);}.cls-31{fill:url(#linear-gradient-27);}.cls-32{fill:url(#linear-gradient-28);}.cls-33{fill:url(#linear-gradient-29);}.cls-34{fill:url(#linear-gradient-30);}</style><linearGradient id="linear-gradient" x1="-907.72" y1="730.13" x2="-748.22" y2="730.13" gradientTransform="matrix(-1, 0, 0, 1, 48.66, 458.89)" gradientUnits="userSpaceOnUse"><stop offset="0" stop-color="#ccc"/><stop offset="1" stop-opacity="0.4"/></linearGradient><linearGradient id="linear-gradient-2" x1="-751.88" y1="547.13" x2="-592.38" y2="547.13" gradientTransform="matrix(-1, 0, 0, 1, 48.66, 458.89)" gradientUnits="userSpaceOnUse"><stop offset="0" stop-color="#fff"/><stop offset="1" stop-opacity="0.1"/></linearGradient><linearGradient id="linear-gradient-3" x1="-751.71" y1="455.13" x2="-592.21" y2="455.13" gradientTransform="matrix(-1, 0, 0, 1, 48.66, 458.89)" gradientUnits="userSpaceOnUse"><stop offset="0" stop-color="#f2f2f2" stop-opacity="0.4"/><stop offset="1" stop-color="#fff"/></linearGradient><linearGradient id="linear-gradient-4" x1="-592.71" y1="547.13" x2="-433.21" y2="547.13" xlink:href="#linear-gradient-3"/><linearGradient id="linear-gradient-5" x1="-671.96" y1="547.04" x2="-671.96" y2="731.21" xlink:href="#linear-gradient-2"/><linearGradient id="linear-gradient-6" x1="-910.21" y1="639.92" x2="-750.71" y2="639.92" xlink:href="#linear-gradient-2"/><linearGradient id="linear-gradient-7" x1="-671.97" y1="914.21" x2="-671.97" y2="730.04" xlink:href="#linear-gradient-2"/><linearGradient id="linear-gradient-8" x1="-431.88" y1="730.13" x2="-272.38" y2="730.13" gradientTransform="matrix(-1, 0, 0, 1, 48.66, 458.89)" gradientUnits="userSpaceOnUse"><stop offset="0" stop-color="#fff"/><stop offset="1" stop-color="#e6e6e6" stop-opacity="0.1"/></linearGradient><linearGradient id="linear-gradient-9" x1="-351.97" y1="730.04" x2="-351.97" y2="914.21" gradientTransform="matrix(-1, 0, 0, 1, 48.66, 458.89)" gradientUnits="userSpaceOnUse"><stop offset="0" stop-color="#fff"/><stop offset="0.96" stop-color="#999" stop-opacity="0.13"/><stop offset="1" stop-color="#e6e6e6" stop-opacity="0.1"/></linearGradient><linearGradient id="linear-gradient-10" x1="-431.88" y1="363.13" x2="-272.38" y2="363.13" xlink:href="#linear-gradient-8"/><linearGradient id="linear-gradient-11" x1="45.94" y1="823.12" x2="-33.81" y2="684.99" xlink:href="#linear-gradient-3"/><linearGradient id="linear-gradient-12" x1="-751.71" y1="87.12" x2="-592.21" y2="87.12" xlink:href="#linear-gradient-8"/><linearGradient id="linear-gradient-13" x1="-870.34" y1="339.99" x2="-710.83" y2="247.9" gradientTransform="matrix(-1, 0, 0, 1, 48.66, 458.89)" gradientUnits="userSpaceOnUse"><stop offset="0" stop-color="#f2f2f2"/><stop offset="1" stop-color="#e6e6e6" stop-opacity="0.1"/></linearGradient><linearGradient id="linear-gradient-14" x1="-512.46" y1="684.98" x2="-592.22" y2="823.11" xlink:href="#linear-gradient-2"/><linearGradient id="linear-gradient-15" x1="-751.56" y1="730.92" x2="-592.05" y2="730.92" xlink:href="#linear-gradient-2"/><linearGradient id="linear-gradient-16" x1="446.28" y1="1013.13" x2="605.78" y2="1013.13" gradientTransform="matrix(1, 0, 0, -1, -602.66, 1104.12)" xlink:href="#linear-gradient"/><linearGradient id="linear-gradient-17" x1="602.12" y1="830.13" x2="761.62" y2="830.13" gradientTransform="matrix(1, 0, 0, -1, -602.66, 1104.12)" xlink:href="#linear-gradient-2"/><linearGradient id="linear-gradient-18" x1="602.28" y1="738.13" x2="761.78" y2="738.13" gradientTransform="matrix(1, 0, 0, -1, -602.66, 1104.12)" xlink:href="#linear-gradient-3"/><linearGradient id="linear-gradient-19" x1="761.28" y1="830.13" x2="920.78" y2="830.13" gradientTransform="matrix(1, 0, 0, -1, -602.66, 1104.12)" xlink:href="#linear-gradient-3"/><linearGradient id="linear-gradient-20" x1="682.03" y1="830.05" x2="682.03" y2="1014.22" gradientTransform="matrix(1, 0, 0, -1, -602.66, 1104.12)" xlink:href="#linear-gradient-2"/><linearGradient id="linear-gradient-21" x1="443.79" y1="922.93" x2="603.29" y2="922.93" gradientTransform="matrix(1, 0, 0, -1, -602.66, 1104.12)" xlink:href="#linear-gradient-2"/><linearGradient id="linear-gradient-22" x1="682.03" y1="1197.22" x2="682.03" y2="1013.05" gradientTransform="matrix(1, 0, 0, -1, -602.66, 1104.12)" xlink:href="#linear-gradient-2"/><linearGradient id="linear-gradient-23" x1="922.12" y1="1013.14" x2="1081.62" y2="1013.14" gradientTransform="matrix(1, 0, 0, -1, -602.66, 1104.12)" xlink:href="#linear-gradient-8"/><linearGradient id="linear-gradient-24" x1="1002.03" y1="1013.05" x2="1002.03" y2="1197.22" gradientTransform="matrix(1, 0, 0, -1, -602.66, 1104.12)" xlink:href="#linear-gradient-9"/><linearGradient id="linear-gradient-25" x1="922.12" y1="646.14" x2="1081.62" y2="646.14" gradientTransform="matrix(1, 0, 0, -1, -602.66, 1104.12)" xlink:href="#linear-gradient-8"/><linearGradient id="linear-gradient-26" x1="1399.94" y1="1106.13" x2="1320.19" y2="968" gradientTransform="matrix(1, 0, 0, -1, -602.66, 1104.12)" xlink:href="#linear-gradient-3"/><linearGradient id="linear-gradient-27" x1="602.29" y1="370.13" x2="761.79" y2="370.13" gradientTransform="matrix(1, 0, 0, -1, -602.66, 1104.12)" xlink:href="#linear-gradient-8"/><linearGradient id="linear-gradient-28" x1="483.67" y1="623" x2="643.16" y2="530.91" gradientTransform="matrix(1, 0, 0, -1, -602.66, 1104.12)" xlink:href="#linear-gradient-13"/><linearGradient id="linear-gradient-29" x1="841.53" y1="967.99" x2="761.78" y2="1106.12" gradientTransform="matrix(1, 0, 0, -1, -602.66, 1104.12)" xlink:href="#linear-gradient-2"/><linearGradient id="linear-gradient-30" x1="602.44" y1="1013.93" x2="761.94" y2="1013.93" gradientTransform="matrix(1, 0, 0, -1, -602.66, 1104.12)" xlink:href="#linear-gradient-2"/></defs><polygon class="cls-1" points="956.38 1281.1 956.37 1096.93 796.88 1189.01 956.38 1281.1"/><polygon class="cls-2" points="958.37 915.1 958.37 730.93 798.87 823.01 958.37 915.1"/><polygon class="cls-3" points="800.54 1006.01 641.04 913.93 641.04 1098.1 800.54 1006.01"/><polygon class="cls-4" points="800.37 1006.1 800.37 821.93 640.87 914.02 800.37 1006.1"/><polygon class="cls-5" points="641.37 1098.1 641.37 913.93 481.87 1006.02 641.37 1098.1"/><polygon class="cls-6" points="800.37 1005.93 640.87 1098.02 800.38 1190.1 800.37 1005.93"/><polygon class="cls-7" points="958.87 1099 958.87 914.82 799.37 1006.91 958.87 1099"/><polygon class="cls-2" points="799.54 1007.2 959.04 915.11 799.54 823.03 799.54 1007.2"/><polygon class="cls-8" points="958.87 1098.81 799.37 1006.73 799.37 1190.9 958.87 1098.81"/><polygon class="cls-9" points="800.38 1373.1 800.38 1188.93 640.88 1281.02 800.38 1373.1"/><polygon class="cls-10" points="480.54 1189.02 321.04 1096.93 321.04 1281.1 480.54 1189.02"/><polygon class="cls-2" points="480.38 1189.1 480.37 1004.93 320.87 1097.02 480.38 1189.1"/><polygon class="cls-2" points="321.38 1281.1 321.37 1096.93 161.88 1189.02 321.38 1281.1"/><polygon class="cls-11" points="480.38 1188.93 320.88 1281.02 480.38 1373.1 480.38 1188.93"/><polygon class="cls-12" points="480.54 822.02 321.04 729.93 321.04 914.1 480.54 822.02"/><polygon class="cls-2" points="480.37 822.1 480.37 637.93 320.87 730.02 480.37 822.1"/><polygon class="cls-2" points="321.37 914.1 321.37 729.93 161.87 822.02 321.37 914.1"/><polygon class="cls-2" points="480.37 821.93 320.87 914.02 480.37 1006.1 480.37 821.93"/><polygon class="cls-2" points="640.87 730.03 481.37 822.12 640.87 914.2 640.87 730.03"/><polygon class="cls-2" points="640.87 730.22 481.36 638.13 481.37 822.31 640.87 730.22"/><polygon class="cls-13" points="641.04 913.91 481.54 821.83 481.54 1006 641.04 913.91"/><polygon class="cls-2" points="640.71 730.13 640.71 914.3 800.21 822.22 640.71 730.13"/><polygon class="cls-2" points="2.88 1282.11 2.87 1097.94 -156.63 1190.03 2.88 1282.11"/><polygon class="cls-14" points="2.72 1282.01 162.22 1189.92 2.72 1097.84 2.72 1282.01"/><polygon class="cls-2" points="-156.46 1190.31 3.04 1098.23 -156.46 1006.14 -156.46 1190.31"/><polygon class="cls-2" points="2.87 1281.92 -156.63 1189.84 -156.63 1374.01 2.87 1281.92"/><polygon class="cls-13" points="2.58 1282.74 162.34 1374.37 161.81 1190.2 2.58 1282.74"/><polygon class="cls-2" points="2.13 1098.06 161.63 1005.97 2.13 913.88 2.13 1098.06"/><polygon class="cls-2" points="2.13 1097.87 161.63 1189.96 161.63 1005.78 2.13 1097.87"/><polygon class="cls-2" points="1.96 914.17 161.46 1006.26 161.46 822.08 1.96 914.17"/><polygon class="cls-2" points="2.28 1097.96 2.28 913.78 -157.22 1005.87 2.28 1097.96"/><polygon class="cls-2" points="320.87 1098 320.87 913.83 161.37 1005.92 320.87 1098"/><polygon class="cls-2" points="320.71 1097.9 480.21 1005.81 320.71 913.73 320.71 1097.9"/><polygon class="cls-2" points="161.54 1006.21 321.04 914.12 161.54 822.03 161.54 1006.21"/><polygon class="cls-2" points="320.87 1097.82 161.37 1005.73 161.37 1189.9 320.87 1097.82"/><polygon class="cls-2" points="956.37 543.1 956.37 358.93 796.87 451.01 956.37 543.1"/><polygon class="cls-2" points="800.54 638.01 641.04 545.93 641.04 730.1 800.54 638.01"/><polygon class="cls-15" points="800.37 638.1 800.37 453.93 640.87 546.02 800.37 638.1"/><polygon class="cls-2" points="641.37 730.1 641.37 545.93 481.87 638.02 641.37 730.1"/><polygon class="cls-2" points="800.37 637.93 640.87 730.02 800.37 822.1 800.37 637.93"/><polygon class="cls-2" points="958.87 730 958.87 545.83 799.37 637.91 958.87 730"/><polygon class="cls-2" points="799.54 638.2 959.04 546.11 799.54 454.03 799.54 638.2"/><polygon class="cls-16" points="958.87 729.81 799.36 637.73 799.37 821.9 958.87 729.81"/><polygon class="cls-17" points="320.87 1281.22 161.37 1189.13 161.37 1373.31 320.87 1281.22"/><polygon class="cls-18" points="640.88 1282 640.87 1097.83 481.38 1189.91 640.88 1282"/><polygon class="cls-19" points="640.72 1281.9 800.22 1189.81 640.71 1097.73 640.72 1281.9"/><polygon class="cls-13" points="481.54 1190.2 641.04 1098.12 481.54 1006.03 481.54 1190.2"/><polygon class="cls-13" points="640.87 1281.81 481.37 1189.73 481.37 1373.9 640.87 1281.81"/><polygon class="cls-20" points="-156.38 -1.1 -156.38 183.07 3.12 90.98 -156.38 -1.1"/><polygon class="cls-2" points="-158.38 364.9 -158.38 549.07 1.12 456.98 -158.38 364.9"/><polygon class="cls-21" points="-0.54 273.98 158.96 366.07 158.96 181.9 -0.54 273.98"/><polygon class="cls-22" points="-0.38 273.9 -0.37 458.07 159.12 365.98 -0.38 273.9"/><polygon class="cls-23" points="158.62 181.9 158.62 366.07 318.12 273.98 158.62 181.9"/><polygon class="cls-24" points="-0.38 274.07 159.12 181.98 -0.38 89.9 -0.38 274.07"/><polygon class="cls-7" points="-158.88 181 -158.88 365.17 0.62 273.08 -158.88 181"/><polygon class="cls-2" points="0.46 272.8 -159.04 364.88 0.46 456.97 0.46 272.8"/><polygon class="cls-25" points="-158.87 181.19 0.63 273.27 0.63 89.1 -158.87 181.19"/><polygon class="cls-26" points="-0.38 -93.1 -0.38 91.07 159.12 -1.02 -0.38 -93.1"/><polygon class="cls-27" points="319.46 90.98 478.96 183.07 478.95 -1.11 319.46 90.98"/><polygon class="cls-2" points="319.62 90.89 319.62 275.07 479.12 182.98 319.62 90.89"/><polygon class="cls-2" points="478.62 -1.11 478.62 183.07 638.12 90.98 478.62 -1.11"/><polygon class="cls-28" points="319.62 91.07 479.12 -1.02 319.62 -93.1 319.62 91.07"/><polygon class="cls-29" points="319.46 457.98 478.96 550.07 478.96 365.89 319.46 457.98"/><polygon class="cls-2" points="319.62 457.9 319.63 642.07 479.13 549.98 319.62 457.9"/><polygon class="cls-2" points="478.62 365.89 478.63 550.07 638.12 457.98 478.62 365.89"/><polygon class="cls-2" points="319.62 458.07 479.12 365.98 319.62 273.9 319.62 458.07"/><polygon class="cls-2" points="159.13 549.97 318.62 457.88 159.12 365.8 159.13 549.97"/><polygon class="cls-2" points="159.13 549.78 318.63 641.87 318.63 457.69 159.13 549.78"/><polygon class="cls-13" points="158.96 366.08 318.46 458.17 318.46 274 158.96 366.08"/><polygon class="cls-2" points="159.28 549.87 159.28 365.69 -0.22 457.78 159.28 549.87"/><polygon class="cls-2" points="797.12 -2.12 797.12 182.06 956.62 89.97 797.12 -2.12"/><polygon class="cls-30" points="797.28 -2.01 637.78 90.07 797.28 182.16 797.28 -2.01"/><polygon class="cls-2" points="956.45 89.68 796.96 181.77 956.46 273.86 956.45 89.68"/><polygon class="cls-2" points="797.13 -1.93 956.63 90.16 956.63 -94.01 797.13 -1.93"/><polygon class="cls-13" points="797.42 -2.74 637.66 -94.37 638.19 89.8 797.42 -2.74"/><polygon class="cls-2" points="797.87 181.94 638.37 274.03 797.87 366.11 797.87 181.94"/><polygon class="cls-2" points="797.86 182.13 638.36 90.04 638.36 274.21 797.86 182.13"/><polygon class="cls-2" points="798.04 365.82 638.54 273.74 638.54 457.91 798.04 365.82"/><polygon class="cls-2" points="797.71 182.04 797.71 366.21 957.21 274.13 797.71 182.04"/><polygon class="cls-2" points="479.12 181.99 479.12 366.17 638.62 274.08 479.12 181.99"/><polygon class="cls-2" points="479.28 182.1 319.78 274.18 479.28 366.27 479.28 182.1"/><polygon class="cls-2" points="638.46 273.79 478.96 365.88 638.46 457.97 638.46 273.79"/><polygon class="cls-2" points="479.13 182.18 638.63 274.27 638.63 90.09 479.13 182.18"/><polygon class="cls-2" points="-156.37 736.9 -156.37 921.07 3.13 828.98 -156.37 736.9"/><polygon class="cls-2" points="-0.54 641.98 158.96 734.07 158.96 549.9 -0.54 641.98"/><polygon class="cls-31" points="-0.37 641.9 -0.37 826.07 159.13 733.98 -0.37 641.9"/><polygon class="cls-2" points="158.63 549.9 158.63 734.07 318.13 641.98 158.63 549.9"/><polygon class="cls-2" points="-0.37 642.07 159.13 549.98 -0.37 457.9 -0.37 642.07"/><polygon class="cls-2" points="-158.88 550 -158.87 734.17 0.63 642.08 -158.88 550"/><polygon class="cls-2" points="0.46 641.8 -159.04 733.88 0.46 825.97 0.46 641.8"/><polygon class="cls-32" points="-158.87 550.19 0.63 642.27 0.63 458.1 -158.87 550.19"/><polygon class="cls-17" points="479.13 -1.22 638.63 90.87 638.63 -93.31 479.13 -1.22"/><polygon class="cls-33" points="159.12 -2 159.12 182.17 318.62 90.08 159.12 -2"/><polygon class="cls-34" points="159.28 -1.9 -0.22 90.18 159.28 182.27 159.28 -1.9"/><polygon class="cls-13" points="318.45 89.79 158.96 181.88 318.46 273.97 318.45 89.79"/><polygon class="cls-13" points="159.13 -1.82 318.63 90.27 318.63 -93.9 159.13 -1.82"/></svg>