<svg id="Layer_1" data-name="Layer 1" xmlns="http://www.w3.org/2000/svg" xmlns:xlink="http://www.w3.org/1999/xlink" viewBox="0 0 428 926"><defs><style>.cls-1{fill:url(#linear-gradient);}.cls-2{fill:url(#linear-gradient-2);}.cls-3{fill:url(#linear-gradient-3);}.cls-4{fill:url(#linear-gradient-4);}.cls-5{fill:url(#linear-gradient-5);}.cls-6{fill:url(#linear-gradient-6);}.cls-7{fill:url(#linear-gradient-7);}.cls-8{fill:url(#linear-gradient-8);}.cls-9{fill:none;}.cls-10{fill:url(#linear-gradient-9);}.cls-11{fill:url(#linear-gradient-10);}.cls-12{fill:#f2f2f2;}.cls-13{fill:url(#linear-gradient-11);}.cls-14{fill:url(#linear-gradient-12);}.cls-15{fill:url(#linear-gradient-13);}.cls-16{fill:url(#linear-gradient-14);}.cls-17{fill:#e6e6e6;}.cls-18{fill:url(#linear-gradient-15);}.cls-19{fill:url(#linear-gradient-16);}.cls-20{fill:url(#linear-gradient-17);}.cls-21{fill:url(#linear-gradient-18);}.cls-22{fill:url(#linear-gradient-19);}.cls-23{fill:url(#linear-gradient-20);}.cls-24{fill:url(#linear-gradient-21);}.cls-25{fill:url(#linear-gradient-22);}.cls-26{fill:url(#linear-gradient-23);}.cls-27{fill:url(#linear-gradient-24);}.cls-28{fill:url(#linear-gradient-25);}.cls-29{fill:url(#linear-gradient-26);}.cls-30{fill:url(#linear-gradient-27);}.cls-31{fill:url(#linear-gradient-28);}.cls-32{fill:url(#linear-gradient-29);}.cls-33{fill:url(#linear-gradient-30);}.cls-34{fill:url(#linear-gradient-31);}.cls-35{fill:url(#linear-gradient-32);}.cls-36{fill:url(#linear-gradient-33);}.cls-37{fill:url(#linear-gradient-34);}</style><linearGradient id="linear-gradient" x1="754.77" y1="322.74" x2="863.78" y2="322.74" gradientTransform="matrix(1, 0, 0, -1, -808.66, 570.83)" gradientUnits="userSpaceOnUse"><stop offset="0" stop-color="#fff"/><stop offset="1" stop-opacity="0.1"/></linearGradient><linearGradient id="linear-gradient-2" x1="754.88" y1="259.87" x2="863.89" y2="259.87" gradientTransform="matrix(1, 0, 0, -1, -808.66, 570.83)" gradientUnits="userSpaceOnUse"><stop offset="0" stop-color="#f2f2f2" stop-opacity="0.4"/><stop offset="1" stop-color="#fff"/></linearGradient><linearGradient id="linear-gradient-3" x1="863.55" y1="322.74" x2="972.56" y2="322.74" xlink:href="#linear-gradient-2"/><linearGradient id="linear-gradient-4" x1="809.38" y1="322.68" x2="809.38" y2="448.55" xlink:href="#linear-gradient"/><linearGradient id="linear-gradient-5" x1="-900.9" y1="8.43" x2="-900.9" y2="134.3" gradientTransform="matrix(-1, 0, 0, 1, -900.28, -74.11)" gradientUnits="userSpaceOnUse"><stop offset="0" stop-color="#fff"/><stop offset="1" stop-opacity="0.4"/></linearGradient><linearGradient id="linear-gradient-6" x1="809.38" y1="573.62" x2="809.38" y2="447.75" xlink:href="#linear-gradient"/><linearGradient id="linear-gradient-7" x1="-1064.18" y1="71.37" x2="-955.17" y2="71.37" xlink:href="#linear-gradient-5"/><linearGradient id="linear-gradient-8" x1="973.47" y1="447.82" x2="1082.48" y2="447.82" gradientTransform="matrix(1, 0, 0, -1, -808.66, 570.83)" gradientUnits="userSpaceOnUse"><stop offset="0" stop-color="#fff"/><stop offset="1" stop-color="#e6e6e6" stop-opacity="0.1"/></linearGradient><linearGradient id="linear-gradient-9" x1="1028.09" y1="447.75" x2="1028.09" y2="573.63" gradientTransform="matrix(1, 0, 0, -1, -808.66, 570.83)" gradientUnits="userSpaceOnUse"><stop offset="0" stop-color="#fff"/><stop offset="0.96" stop-color="#999" stop-opacity="0.13"/><stop offset="1" stop-color="#e6e6e6" stop-opacity="0.1"/></linearGradient><linearGradient id="linear-gradient-10" x1="973.47" y1="196.99" x2="1082.48" y2="196.99" xlink:href="#linear-gradient-8"/><linearGradient id="linear-gradient-11" x1="1300.03" y1="511.38" x2="1245.53" y2="416.97" xlink:href="#linear-gradient-2"/><linearGradient id="linear-gradient-12" x1="-1391.64" y1="70.33" x2="-1282.45" y2="70.33" gradientTransform="matrix(-1, 0, 0, 1, -900.28, -74.11)" xlink:href="#linear-gradient"/><linearGradient id="linear-gradient-13" x1="754.88" y1="8.36" x2="863.9" y2="8.36" xlink:href="#linear-gradient-8"/><linearGradient id="linear-gradient-14" x1="-1283.22" y1="71.3" x2="-1174.21" y2="71.3" gradientTransform="matrix(-1, 0, 0, 1, -900.28, -74.11)" gradientUnits="userSpaceOnUse"><stop offset="0" stop-color="#fff"/><stop offset="1" stop-opacity="0.2"/></linearGradient><linearGradient id="linear-gradient-15" x1="-1174.32" y1="71.23" x2="-1065.31" y2="71.23" gradientTransform="matrix(-1, 0, 0, 1, -900.28, -74.11)" gradientUnits="userSpaceOnUse"><stop offset="0" stop-color="#ccc"/><stop offset="1" stop-opacity="0.1"/></linearGradient><linearGradient id="linear-gradient-16" x1="918.4" y1="416.96" x2="863.9" y2="511.37" xlink:href="#linear-gradient"/><linearGradient id="linear-gradient-17" x1="754.99" y1="448.36" x2="864" y2="448.36" xlink:href="#linear-gradient"/><linearGradient id="linear-gradient-18" x1="143.78" y1="-487.24" x2="252.79" y2="-487.24" gradientTransform="matrix(-1, 0, 0, 1, 625.67, 1165.16)" xlink:href="#linear-gradient"/><linearGradient id="linear-gradient-19" x1="143.9" y1="-550.12" x2="252.91" y2="-550.12" gradientTransform="matrix(-1, 0, 0, 1, 625.67, 1165.16)" xlink:href="#linear-gradient-2"/><linearGradient id="linear-gradient-20" x1="252.57" y1="-487.24" x2="361.58" y2="-487.24" gradientTransform="matrix(-1, 0, 0, 1, 625.67, 1165.16)" xlink:href="#linear-gradient-2"/><linearGradient id="linear-gradient-21" x1="198.41" y1="-487.3" x2="198.41" y2="-361.43" gradientTransform="matrix(-1, 0, 0, 1, 625.67, 1165.16)" xlink:href="#linear-gradient"/><linearGradient id="linear-gradient-22" x1="-289.84" y1="818.48" x2="-289.84" y2="944.35" gradientTransform="matrix(1, 0, 0, -1, 717.23, 1810.16)" xlink:href="#linear-gradient-5"/><linearGradient id="linear-gradient-23" x1="198.4" y1="-236.36" x2="198.4" y2="-362.23" gradientTransform="matrix(-1, 0, 0, 1, 625.67, 1165.16)" xlink:href="#linear-gradient"/><linearGradient id="linear-gradient-24" x1="-453.13" y1="881.42" x2="-344.12" y2="881.42" gradientTransform="matrix(1, 0, 0, -1, 717.23, 1810.16)" xlink:href="#linear-gradient-5"/><linearGradient id="linear-gradient-25" x1="362.48" y1="-362.17" x2="471.5" y2="-362.17" gradientTransform="matrix(-1, 0, 0, 1, 625.67, 1165.16)" xlink:href="#linear-gradient-8"/><linearGradient id="linear-gradient-26" x1="417.11" y1="-362.23" x2="417.11" y2="-236.35" gradientTransform="matrix(-1, 0, 0, 1, 625.67, 1165.16)" xlink:href="#linear-gradient-9"/><linearGradient id="linear-gradient-27" x1="362.49" y1="-613" x2="471.5" y2="-613" gradientTransform="matrix(-1, 0, 0, 1, 625.67, 1165.16)" xlink:href="#linear-gradient-8"/><linearGradient id="linear-gradient-28" x1="689.04" y1="-298.61" x2="634.54" y2="-393.02" gradientTransform="matrix(-1, 0, 0, 1, 625.67, 1165.16)" xlink:href="#linear-gradient-2"/><linearGradient id="linear-gradient-29" x1="-780.6" y1="880.38" x2="-671.41" y2="880.38" gradientTransform="matrix(1, 0, 0, -1, 717.23, 1810.16)" xlink:href="#linear-gradient"/><linearGradient id="linear-gradient-30" x1="143.9" y1="-801.63" x2="252.91" y2="-801.63" gradientTransform="matrix(-1, 0, 0, 1, 625.67, 1165.16)" xlink:href="#linear-gradient-8"/><linearGradient id="linear-gradient-31" x1="-672.18" y1="881.35" x2="-563.17" y2="881.35" gradientTransform="matrix(1, 0, 0, -1, 717.23, 1810.16)" xlink:href="#linear-gradient-14"/><linearGradient id="linear-gradient-32" x1="-563.28" y1="881.28" x2="-454.27" y2="881.28" gradientTransform="matrix(1, 0, 0, -1, 717.23, 1810.16)" xlink:href="#linear-gradient-15"/><linearGradient id="linear-gradient-33" x1="307.42" y1="-393.03" x2="252.91" y2="-298.62" gradientTransform="matrix(-1, 0, 0, 1, 625.67, 1165.16)" xlink:href="#linear-gradient"/><linearGradient id="linear-gradient-34" x1="144" y1="-361.63" x2="253.01" y2="-361.63" gradientTransform="matrix(-1, 0, 0, 1, 625.67, 1165.16)" xlink:href="#linear-gradient"/></defs><polygon class="cls-1" points="-53.89 248.09 55.12 311.02 55.12 185.15 -53.89 248.09"/><polygon class="cls-2" points="-53.78 248.03 -53.78 373.89 55.23 310.96 -53.78 248.03"/><polygon class="cls-3" points="54.89 185.15 54.89 311.02 163.9 248.09 54.89 185.15"/><polygon class="cls-4" points="-53.78 248.15 55.23 185.21 -53.78 122.28 -53.78 248.15"/><polygon class="cls-5" points="-53.89 -2.75 55.12 60.2 55.12 -65.67 -53.89 -2.75"/><polygon class="cls-6" points="-53.78 -2.79 -53.78 123.08 55.23 60.13 -53.78 -2.79"/><polygon class="cls-7" points="54.89 -65.67 54.89 60.2 163.9 -2.75 54.89 -65.67"/><polygon class="cls-8" points="164.81 123.02 273.82 185.94 273.82 60.08 164.81 123.02"/><polygon class="cls-9" points="164.93 122.95 164.93 248.82 273.94 185.88 164.93 122.95"/><polygon class="cls-9" points="273.59 60.08 273.59 185.94 382.6 123.02 273.59 60.08"/><polygon class="cls-10" points="164.93 123.08 273.94 60.13 164.93 -2.81 164.93 123.08"/><polygon class="cls-11" points="164.81 373.83 273.82 436.77 273.82 310.9 164.81 373.83"/><polygon class="cls-9" points="164.93 373.77 164.93 499.65 273.94 436.71 164.93 373.77"/><polygon class="cls-9" points="273.59 310.9 273.6 436.77 382.6 373.83 273.59 310.9"/><polygon class="cls-9" points="164.93 373.89 273.94 310.96 164.93 248.03 164.93 373.89"/><polygon class="cls-9" points="55.23 436.7 164.24 373.77 55.23 310.83 55.23 436.7"/><polygon class="cls-9" points="55.24 436.57 164.25 499.51 164.25 373.64 55.24 436.57"/><polygon class="cls-12" points="55.12 311.04 164.13 373.96 164.13 248.09 55.12 311.04"/><polygon class="cls-9" points="55.34 436.63 55.34 310.76 -53.67 373.7 55.34 436.63"/><polygon class="cls-13" points="491.38 59.45 382.37 122.39 491.38 185.32 491.38 59.45"/><polygon class="cls-14" points="491 -66.72 382.17 -3.46 491.36 59.16 491 -66.72"/><polygon class="cls-12" points="491.48 58.95 382.29 -3.67 382.65 122.2 491.48 58.95"/><polygon class="cls-9" points="491.78 185.18 382.77 248.12 491.78 311.06 491.78 185.18"/><polygon class="cls-9" points="491.78 185.31 382.77 122.36 382.77 248.25 491.78 185.31"/><polygon class="cls-9" points="491.9 310.86 382.89 247.91 382.89 373.8 491.9 310.86"/><polygon class="cls-9" points="273.94 185.22 273.94 311.08 382.95 248.16 273.94 185.22"/><polygon class="cls-9" points="274.04 185.28 165.04 248.22 274.05 311.15 274.04 185.28"/><polygon class="cls-9" points="382.83 247.96 273.82 310.89 382.83 373.82 382.83 247.96"/><polygon class="cls-9" points="273.94 185.34 382.95 248.28 382.95 122.41 273.94 185.34"/><polygon class="cls-9" points="-53.89 499.6 55.12 562.53 55.12 436.65 -53.89 499.6"/><polygon class="cls-15" points="-53.78 499.54 -53.78 625.4 55.24 562.48 -53.78 499.54"/><polygon class="cls-9" points="54.89 436.65 54.89 562.53 163.9 499.6 54.89 436.65"/><polygon class="cls-9" points="-53.78 499.65 55.23 436.71 -53.78 373.79 -53.78 499.65"/><polygon class="cls-16" points="273.94 60.13 382.94 -2.81 273.93 -65.75 273.94 60.13"/><polygon class="cls-17" points="273.94 59.99 382.95 122.94 382.95 -2.94 273.94 59.99"/><polygon class="cls-18" points="274.04 60.05 274.04 -65.81 165.03 -2.88 274.04 60.05"/><polygon class="cls-19" points="55.23 59.47 55.23 185.34 164.24 122.39 55.23 59.47"/><polygon class="cls-20" points="55.34 59.53 -53.67 122.47 55.34 185.41 55.34 59.53"/><polygon class="cls-12" points="164.13 122.2 55.12 185.13 164.13 248.07 164.13 122.2"/><polygon class="cls-12" points="55.24 59.59 164.25 122.53 164.25 -3.35 55.24 59.59"/><polygon class="cls-21" points="481.89 677.91 372.88 614.98 372.88 740.86 481.89 677.91"/><polygon class="cls-22" points="481.77 677.98 481.77 552.1 372.76 615.03 481.77 677.98"/><polygon class="cls-23" points="373.1 740.86 373.1 614.98 264.09 677.91 373.1 740.86"/><polygon class="cls-24" points="481.77 677.86 372.76 740.79 481.77 803.73 481.77 677.86"/><polygon class="cls-25" points="481.89 928.74 372.88 865.8 372.88 991.67 481.89 928.74"/><polygon class="cls-26" points="481.78 928.79 481.77 802.92 372.77 865.87 481.78 928.79"/><polygon class="cls-27" points="373.11 991.67 373.11 865.8 264.1 928.75 373.11 991.67"/><polygon class="cls-28" points="263.19 802.99 154.17 740.05 154.18 865.92 263.19 802.99"/><polygon class="cls-9" points="263.07 803.04 263.07 677.17 154.06 740.12 263.07 803.04"/><polygon class="cls-9" points="154.4 865.92 154.4 740.05 45.39 802.99 154.4 865.92"/><polygon class="cls-29" points="263.07 802.92 154.06 865.87 263.07 928.8 263.07 802.92"/><polygon class="cls-30" points="263.18 552.16 154.17 489.23 154.17 615.1 263.18 552.16"/><polygon class="cls-9" points="263.07 552.23 263.07 426.35 154.06 489.29 263.07 552.23"/><polygon class="cls-9" points="154.4 615.1 154.4 489.23 45.39 552.16 154.4 615.1"/><polygon class="cls-9" points="263.07 552.11 154.06 615.03 263.07 677.98 263.07 552.11"/><polygon class="cls-9" points="372.76 489.3 263.75 552.24 372.76 615.16 372.76 489.3"/><polygon class="cls-9" points="372.76 489.42 263.74 426.49 263.75 552.36 372.76 489.42"/><polygon class="cls-12" points="372.88 614.97 263.86 552.03 263.87 677.9 372.88 614.97"/><polygon class="cls-9" points="372.65 489.37 372.65 615.24 481.66 552.29 372.65 489.37"/><polygon class="cls-31" points="-63.38 866.54 45.63 803.61 -63.38 740.67 -63.38 866.54"/><polygon class="cls-32" points="-63.01 992.72 45.82 929.48 -63.37 866.85 -63.01 992.72"/><polygon class="cls-12" points="-63.48 867.04 45.71 929.66 45.35 803.79 -63.48 867.04"/><polygon class="cls-9" points="-63.79 740.83 45.22 677.88 -63.79 614.96 -63.79 740.83"/><polygon class="cls-9" points="-63.78 740.7 45.23 803.63 45.23 677.75 -63.78 740.7"/><polygon class="cls-9" points="-63.9 615.14 45.11 678.09 45.11 552.21 -63.9 615.14"/><polygon class="cls-9" points="154.06 740.78 154.06 614.91 45.05 677.86 154.06 740.78"/><polygon class="cls-9" points="153.95 740.72 262.96 677.77 153.95 614.85 153.95 740.72"/><polygon class="cls-9" points="45.16 678.04 154.17 615.11 45.16 552.17 45.16 678.04"/><polygon class="cls-9" points="154.06 740.65 45.04 677.73 45.05 803.6 154.06 740.65"/><polygon class="cls-9" points="481.88 426.4 372.87 363.46 372.87 489.35 481.88 426.4"/><polygon class="cls-33" points="481.77 426.46 481.77 300.6 372.76 363.52 481.77 426.46"/><polygon class="cls-9" points="373.1 489.35 373.1 363.46 264.09 426.4 373.1 489.35"/><polygon class="cls-9" points="481.77 426.35 372.76 489.29 481.77 552.22 481.77 426.35"/><polygon class="cls-34" points="154.06 865.88 45.05 928.82 154.06 991.75 154.06 865.88"/><polygon class="cls-17" points="154.06 866 45.05 803.07 45.05 928.95 154.06 866"/><polygon class="cls-35" points="153.95 865.95 153.95 991.82 262.96 928.88 153.95 865.95"/><polygon class="cls-36" points="372.77 866.53 372.76 740.66 263.75 803.61 372.77 866.53"/><polygon class="cls-37" points="372.66 866.47 481.67 803.53 372.66 740.6 372.66 866.47"/><polygon class="cls-12" points="263.87 803.79 372.88 740.87 263.87 677.92 263.87 803.79"/><polygon class="cls-12" points="372.76 866.4 263.75 803.48 263.75 929.35 372.76 866.4"/></svg>