<?xml version="1.0" encoding="utf-8"?>
<!-- Generator: Adobe Illustrator 26.0.1, SVG Export Plug-In . SVG Version: 6.00 Build 0)  -->
<svg version="1.1" id="Layer_1" xmlns="http://www.w3.org/2000/svg" xmlns:xlink="http://www.w3.org/1999/xlink" x="0px" y="0px"
	 viewBox="0 0 1920 1080" style="enable-background:new 0 0 1920 1080;" xml:space="preserve">
<style type="text/css">
	.st0{fill:url(#SVGID_1_);}
	.st1{fill:#F2F2F2;}
	.st2{fill:url(#SVGID_00000103958402145485758900000000046568323854058170_);}
	.st3{fill:#999999;}
	.st4{fill:#E6E6E6;}
	.st5{fill:none;}
	.st6{fill:url(#SVGID_00000116196442194701088270000003147002991537635498_);}
	.st7{fill:url(#SVGID_00000055697332069070894520000005693662868203444408_);}
	.st8{fill:url(#SVGID_00000156570369933178763810000014248227447002476672_);}
	.st9{fill:url(#SVGID_00000075879584838942855040000006303880083617143698_);}
	.st10{fill:#666666;}
	.st11{fill:url(#SVGID_00000021078698325996004950000004594750201467784076_);}
	.st12{fill:#CCCCCC;}
	.st13{fill:url(#SVGID_00000183227062681641571110000006356832440916726196_);}
	.st14{fill:url(#SVGID_00000138558044531728502160000003791459458022638208_);}
	.st15{fill:url(#SVGID_00000072248917800851431480000000585462547889719450_);}
	.st16{fill:url(#SVGID_00000035524328021517187420000004508870380535490700_);}
	.st17{fill:url(#SVGID_00000083809693384443191550000013705762489846498222_);}
	.st18{fill:url(#SVGID_00000044884552924658636560000006753646187207326363_);}
	.st19{fill:url(#SVGID_00000049919969374107394090000009153229818252279941_);}
	.st20{fill:#B3B3B3;}
	.st21{fill:url(#SVGID_00000160877076134100148060000014139427492849442181_);}
	.st22{fill:url(#SVGID_00000031912311521862836700000010389138661457098648_);}
	.st23{fill:url(#SVGID_00000051374395536408648040000017260115046588623276_);}
	.st24{fill:url(#SVGID_00000026849491482422965910000017089127879507265964_);}
	.st25{fill:url(#SVGID_00000011024853556575773630000005015494174694027396_);}
	.st26{fill:url(#SVGID_00000096043921418764620450000013107446393362868894_);}
	.st27{fill:url(#SVGID_00000078737606719241266220000005550017089438632085_);}
	.st28{fill:url(#SVGID_00000144312742342085216520000016961756423004940945_);}
	.st29{fill:url(#SVGID_00000134231669049972657900000006104499832163618442_);}
	.st30{fill:url(#SVGID_00000075149844312245456080000015607367186520957619_);}
	.st31{fill:url(#SVGID_00000135650544139862323440000002102719850083303867_);}
	.st32{fill:url(#SVGID_00000073719346867639992650000018267901066432378794_);}
	.st33{fill:url(#SVGID_00000127009053446599716770000014027800204236643465_);}
	.st34{fill:url(#SVGID_00000003067748591512048080000009732658669635732383_);}
	.st35{fill:url(#SVGID_00000170267864660143997720000001310960736230713258_);}
	.st36{fill:url(#SVGID_00000048495827763986697830000017340071309034787236_);}
	.st37{fill:url(#SVGID_00000036239995243514683630000016194724942104434877_);}
	.st38{fill:url(#SVGID_00000073692221158273051760000000723086487532524182_);}
	.st39{fill:url(#SVGID_00000088126563638697081050000007090690297921745331_);}
	.st40{fill:url(#SVGID_00000132086478883735365780000016433935148334689965_);}
	.st41{fill:url(#SVGID_00000108303479386302456270000006134644228430679698_);}
	.st42{fill:url(#SVGID_00000091702208010496475420000005131769198921128099_);}
	.st43{fill:url(#SVGID_00000127734487252134017130000016723203942554998914_);}
	.st44{fill:url(#SVGID_00000142140198656736427220000006573567903937697924_);}
	.st45{fill:url(#SVGID_00000177476453928779126780000011068801158237860009_);}
	.st46{fill:url(#SVGID_00000044166520987837967920000000940496392554694812_);}
	.st47{fill:url(#SVGID_00000053545295208239585080000010303568087658591147_);}
	.st48{fill:url(#SVGID_00000024680333701680135580000007932690667370895794_);}
	.st49{fill:url(#SVGID_00000173872651660439298400000016402208592870959038_);}
	.st50{fill:url(#SVGID_00000100363507716777279870000018191387332967175552_);}
</style>
<linearGradient id="SVGID_1_" gradientUnits="userSpaceOnUse" x1="79.21" y1="47.53" x2="79.21" y2="231.71" gradientTransform="matrix(1 0 0 1 0 0.86)">
	<stop  offset="0" style="stop-color:#000000;stop-opacity:0.4"/>
	<stop  offset="1" style="stop-color:#FFFFFF"/>
</linearGradient>
<polygon class="st0" points="-0.5,140.5 159,232.6 159,48.4 "/>
<polygon class="st1" points="0.6,141.4 0.6,325.6 160.1,233.5 "/>
<linearGradient id="SVGID_00000044179039289956281170000013713732776658035870_" gradientUnits="userSpaceOnUse" x1="158.63" y1="140.62" x2="318.13" y2="140.62" gradientTransform="matrix(1 0 0 1 0 0.86)">
	<stop  offset="0" style="stop-color:#CCCCCC"/>
	<stop  offset="1" style="stop-color:#000000;stop-opacity:0.4"/>
</linearGradient>
<polygon style="fill:url(#SVGID_00000044179039289956281170000013713732776658035870_);" points="158.6,49.4 158.6,233.6 
	318.1,141.5 "/>
<path class="st3" d="M75.1,0c-0.1,0-0.2,0-0.3,0c-0.6,0-1.2,0-1.8,0c-0.6,0-1.2,0-1.8,0c0,0,0,0.1,0,0.1c-0.1,0-0.2,0-0.3,0
	c-0.1,0-0.3,0-0.4,0c-0.6,0-1.2,0-1.8,0c-0.6,0-1.2,0-1.8,0c0.1,0-0.7,0-0.7,0c0,0,0-0.1,0-0.1c-1,0-2.9,0-3.8,0c-0.9,0-2.9,0-3.9,0
	c-0.5,0-1.1,0-1.6,0c-0.6,0-1.2,0-1.8,0c0.1,0-0.7,0-0.7,0c0,0,0,0,0,0c-0.7,0-1.6,0-1.7,0c-0.2,0-2.5,0-2.5,0c0,0,0,0,0,0
	c-0.7,0-1.4,0-2.1,0c0,0,0,0,0,0c0,0-4,0-4.8,0c-0.5,0-1,0-1.1,0c-0.6,0-1.2,0-1.8,0c0.1,0-0.7,0-0.7,0c0,0,0,0,0,0
	c-0.2,0-0.3,0-0.5,0c-0.4,0-0.9,0-1.3,0c0,0,0,0,0,0c-0.1,0-0.2,0-0.3,0c-0.1,0-0.3,0-0.4,0c-0.6,0-1.2,0-1.8,0c-0.6,0-1.2,0-1.8,0
	c0.1,0-0.7,0-0.7,0c0,0,0,0,0,0c-0.1,0-0.1,0-0.2,0c0,0.1,0.1,0.1,0.1,0.2c-0.1,0-0.2,0-0.3,0c-0.1,0-0.3,0-0.4,0
	c-0.6,0-1.2,0-1.8,0c-0.6,0-1.2,0-1.8,0c-0.2,0-0.3,0-0.5,0c-0.1,0-0.1,0-0.2,0c0,0,0-0.1-0.1-0.1c-0.9,0-3.4,0-4.3,0
	c-0.7,0-2.4,0-3.5,0c0,0,0,0.1,0,0.1c0,0-5,0-5,0c0,0,0-0.1,0-0.1c0,0,0,0-0.1,0c-0.4,0-0.8,0-1.1,0c-0.8,0.1-1.6,0.2-2.4,0.2
	c-0.6,0-1.3,0-1.9,0c-0.6,0-0.9,0-1.1,0C7.6,0.1,7,0.1,6.4,0C6.1,0,5.9-0.1,5.7-0.2c-0.4,0-0.9,0-1.4,0c-0.6,0-1.2,0-1.8,0
	c-0.1,0-0.2,0-0.4,0c-0.5,0-1,0-1.5,0c-0.3,0-0.7,0-1,0v140.7l159.5-92.1L75.1,0z"/>
<polygon class="st4" points="-2.5,507.5 157,599.6 157,415.4 "/>
<polygon class="st1" points="-2.4,507.4 -2.4,691.6 157.1,599.5 "/>
<polygon class="st5" points="157.6,415.4 157.6,599.6 317.1,507.5 "/>
<polygon class="st4" points="-2.4,507.6 157.1,415.5 -2.4,323.4 "/>
<linearGradient id="SVGID_00000167392200152304661410000000409417984047733929_" gradientUnits="userSpaceOnUse" x1="315.45" y1="323.62" x2="474.95" y2="323.62" gradientTransform="matrix(1 0 0 1 0 0.86)">
	<stop  offset="0" style="stop-color:#FFFFFF"/>
	<stop  offset="1" style="stop-color:#000000;stop-opacity:0.1"/>
</linearGradient>
<polygon style="fill:url(#SVGID_00000167392200152304661410000000409417984047733929_);" points="315.5,324.5 475,416.6 475,232.4 
	"/>
<linearGradient id="SVGID_00000136389330123646494290000004690124513333124224_" gradientUnits="userSpaceOnUse" x1="315.63" y1="415.62" x2="475.13" y2="415.62" gradientTransform="matrix(1 0 0 1 0 0.86)">
	<stop  offset="0" style="stop-color:#F2F2F2;stop-opacity:0.4"/>
	<stop  offset="1" style="stop-color:#FFFFFF"/>
</linearGradient>
<polygon style="fill:url(#SVGID_00000136389330123646494290000004690124513333124224_);" points="315.6,324.4 315.6,508.6 
	475.1,416.5 "/>
<linearGradient id="SVGID_00000103965959529350635330000002837956023004308638_" gradientUnits="userSpaceOnUse" x1="474.63" y1="323.62" x2="634.13" y2="323.62" gradientTransform="matrix(1 0 0 1 0 0.86)">
	<stop  offset="0" style="stop-color:#F2F2F2;stop-opacity:0.4"/>
	<stop  offset="1" style="stop-color:#FFFFFF"/>
</linearGradient>
<polygon style="fill:url(#SVGID_00000103965959529350635330000002837956023004308638_);" points="474.6,232.4 474.6,416.6 
	634.1,324.5 "/>
<linearGradient id="SVGID_00000160154045206754221150000012815062044899934349_" gradientUnits="userSpaceOnUse" x1="395.38" y1="323.71" x2="395.38" y2="139.53" gradientTransform="matrix(1 0 0 1 0 0.86)">
	<stop  offset="0" style="stop-color:#FFFFFF"/>
	<stop  offset="1" style="stop-color:#000000;stop-opacity:0.1"/>
</linearGradient>
<polygon style="fill:url(#SVGID_00000160154045206754221150000012815062044899934349_);" points="315.6,324.6 475.1,232.5 
	315.6,140.4 "/>
<polyline class="st10" points="158.6,-0.1 158.6,49.4 244.3,-0.1 "/>
<linearGradient id="SVGID_00000123432884398267266270000012987029515115835042_" gradientUnits="userSpaceOnUse" x1="158.28" y1="69.758" x2="317.78" y2="69.758" gradientTransform="matrix(1 0 0 1 0 0.86)">
	<stop  offset="0" style="stop-color:#FFFFFF"/>
	<stop  offset="1" style="stop-color:#000000;stop-opacity:0.1"/>
</linearGradient>
<polyline style="fill:url(#SVGID_00000123432884398267266270000012987029515115835042_);" points="244.2,-0.2 158.3,49.4 
	317.8,141.5 317.8,-0.1 "/>
<path class="st3" d="M75.6-0.1C75.6-0.1,75.6-0.1,75.6-0.1C75.5,0,75.3,0,75.2,0l-0.4,0c-0.1,0-0.1,0-0.2,0l84,48.5V-0.1H75.6z"/>
<polygon class="st12" points="157.1,231.5 157.1,415.7 316.6,323.6 "/>
<linearGradient id="SVGID_00000138572877742986473380000013645059917220178575_" gradientUnits="userSpaceOnUse" x1="77.5319" y1="368.8704" x2="157.2816" y2="230.7309" gradientTransform="matrix(1 0 0 1 0 0.86)">
	<stop  offset="0" style="stop-color:#FFFFFF"/>
	<stop  offset="1" style="stop-color:#000000;stop-opacity:0.1"/>
</linearGradient>
<polygon style="fill:url(#SVGID_00000138572877742986473380000013645059917220178575_);" points="157.3,231.6 -2.2,323.7 
	157.3,415.8 "/>
<polygon class="st5" points="316.5,323.3 157,415.4 316.5,507.5 "/>
<linearGradient id="SVGID_00000146500058338537706110000018156025347082180798_" gradientUnits="userSpaceOnUse" x1="157.13" y1="230.82" x2="316.63" y2="230.82" gradientTransform="matrix(1 0 0 1 0 0.86)">
	<stop  offset="0" style="stop-color:#FFFFFF"/>
	<stop  offset="1" style="stop-color:#000000;stop-opacity:0.1"/>
</linearGradient>
<polygon style="fill:url(#SVGID_00000146500058338537706110000018156025347082180798_);" points="157.1,231.7 316.6,323.8 
	316.6,139.6 "/>
<polyline class="st10" points="388.7,-0.2 475,49.6 475,-0.4 "/>
<linearGradient id="SVGID_00000130642392880057817760000018032350048221995907_" gradientUnits="userSpaceOnUse" x1="395.38" y1="-1.2495" x2="395.38" y2="140.71" gradientTransform="matrix(1 0 0 1 0 0.86)">
	<stop  offset="0" style="stop-color:#FFFFFF"/>
	<stop  offset="1" style="stop-color:#000000;stop-opacity:0.1"/>
</linearGradient>
<polyline style="fill:url(#SVGID_00000130642392880057817760000018032350048221995907_);" points="315.6,-0.2 315.6,141.6 
	475.1,49.5 388.8,-0.4 "/>
<polyline class="st3" points="474.6,-0.4 474.6,49.6 560.4,0.1 "/>
<linearGradient id="SVGID_00000160889864174087763240000005559289294177072796_" gradientUnits="userSpaceOnUse" x1="635.46" y1="140.62" x2="794.96" y2="140.62" gradientTransform="matrix(1 0 0 1 0 0.86)">
	<stop  offset="0" style="stop-color:#FFFFFF"/>
	<stop  offset="1" style="stop-color:#E6E6E6;stop-opacity:0.1"/>
</linearGradient>
<polygon style="fill:url(#SVGID_00000160889864174087763240000005559289294177072796_);" points="635.5,141.5 795,233.6 795,49.4 
	"/>
<polygon class="st5" points="635.6,141.4 635.6,325.6 795.1,233.5 "/>
<polygon class="st5" points="794.6,49.4 794.6,233.6 954.1,141.5 "/>
<linearGradient id="SVGID_00000075156751596912680360000000318824059582746005_" gradientUnits="userSpaceOnUse" x1="715.38" y1="140.71" x2="715.38" y2="-1.2495" gradientTransform="matrix(1 0 0 1 0 0.86)">
	<stop  offset="0" style="stop-color:#FFFFFF"/>
	<stop  offset="0.96" style="stop-color:#999999;stop-opacity:0.13"/>
	<stop  offset="1" style="stop-color:#E6E6E6;stop-opacity:0.1"/>
</linearGradient>
<polyline style="fill:url(#SVGID_00000075156751596912680360000000318824059582746005_);" points="635.6,-0.4 635.6,141.6 
	795.1,49.5 709,-0.2 "/>
<linearGradient id="SVGID_00000079447436521826596570000007625600012696754054_" gradientUnits="userSpaceOnUse" x1="635.46" y1="507.62" x2="794.96" y2="507.62" gradientTransform="matrix(1 0 0 1 0 0.86)">
	<stop  offset="0" style="stop-color:#FFFFFF"/>
	<stop  offset="1" style="stop-color:#E6E6E6;stop-opacity:0.1"/>
</linearGradient>
<polygon style="fill:url(#SVGID_00000079447436521826596570000007625600012696754054_);" points="635.5,508.5 795,600.6 795,416.4 
	"/>
<polygon class="st5" points="635.6,508.4 635.6,692.6 795.1,600.5 "/>
<polygon class="st5" points="794.6,416.4 794.6,600.6 954.1,508.5 "/>
<polygon class="st5" points="635.6,508.6 795.1,416.5 635.6,324.4 "/>
<polygon class="st5" points="475.1,600.5 634.6,508.4 475.1,416.3 "/>
<polygon class="st5" points="475.1,600.3 634.6,692.4 634.6,508.2 "/>
<polygon class="st1" points="475,416.6 634.5,508.7 634.5,324.5 "/>
<polygon class="st5" points="475.3,600.4 475.3,416.2 315.8,508.3 "/>
<polygon class="st5" points="1113.1,48.4 1113.1,232.6 1272.6,140.5 "/>
<linearGradient id="SVGID_00000134960934575192994530000009021362535367165577_" gradientUnits="userSpaceOnUse" x1="1113.2842" y1="47.6266" x2="1033.5342" y2="185.7565" gradientTransform="matrix(1 0 0 1 0 0.86)">
	<stop  offset="0" style="stop-color:#F2F2F2;stop-opacity:0.4"/>
	<stop  offset="1" style="stop-color:#FFFFFF"/>
</linearGradient>
<polygon style="fill:url(#SVGID_00000134960934575192994530000009021362535367165577_);" points="1113.3,48.5 953.8,140.6 
	1113.3,232.7 "/>
<polygon class="st5" points="1272.4,140.2 1112.9,232.3 1272.4,324.4 "/>
<polygon class="st5" points="1113.1,48.6 1272.6,140.7 1272.6,-43.5 "/>
<polyline class="st20" points="1032.8,1.9 1113.3,48 1113.1,-0.4 "/>
<polyline class="st1" points="953.8,-0.4 954.2,140.3 1113.4,47.8 1029,-0.7 "/>
<polyline class="st3" points="1113,-0.4 1113.1,48.2 1194.3,1 "/>
<polygon class="st5" points="1113.9,232.4 954.4,324.5 1113.9,416.6 "/>
<polygon class="st5" points="1113.9,232.6 954.4,140.5 954.4,324.7 "/>
<polygon class="st5" points="1114.1,416.3 954.5,324.2 954.5,508.4 "/>
<polygon class="st5" points="1113.7,232.5 1113.7,416.7 1273.2,324.6 "/>
<polygon class="st5" points="795.1,232.5 795.1,416.7 954.6,324.6 "/>
<polygon class="st5" points="795.3,232.6 635.8,324.7 795.3,416.8 "/>
<polygon class="st5" points="954.5,324.3 795,416.4 954.5,508.5 "/>
<polygon class="st5" points="795.1,232.7 954.6,324.8 954.6,140.6 "/>
<polygon class="st5" points="0.5,879.5 160,971.6 160,787.4 "/>
<polygon class="st5" points="0.6,879.4 0.6,1063.6 160.1,971.5 "/>
<polygon class="st5" points="159.6,787.4 159.6,971.6 319.1,879.5 "/>
<polygon class="st5" points="0.6,879.6 160.1,787.5 0.6,695.4 "/>
<polygon class="st5" points="315.5,692.5 475,784.6 475,600.4 "/>
<linearGradient id="SVGID_00000036249063098463658200000001544441797859430314_" gradientUnits="userSpaceOnUse" x1="315.63" y1="783.62" x2="475.13" y2="783.62" gradientTransform="matrix(1 0 0 1 0 0.86)">
	<stop  offset="0" style="stop-color:#FFFFFF"/>
	<stop  offset="1" style="stop-color:#E6E6E6;stop-opacity:0.1"/>
</linearGradient>
<polygon style="fill:url(#SVGID_00000036249063098463658200000001544441797859430314_);" points="315.6,692.4 315.6,876.6 
	475.1,784.5 "/>
<polygon class="st5" points="474.6,600.4 474.6,784.6 634.1,692.5 "/>
<polygon class="st5" points="315.6,692.6 475.1,600.5 315.6,508.4 "/>
<polygon class="st5" points="157.1,600.5 157.1,784.7 316.6,692.6 "/>
<polygon class="st1" points="157.3,600.6 -2.2,692.7 157.3,784.8 "/>
<polygon class="st5" points="316.5,692.3 157,784.4 316.5,876.5 "/>
<linearGradient id="SVGID_00000032634102534800001370000011012532907213273483_" gradientUnits="userSpaceOnUse" x1="197.0002" y1="530.7573" x2="356.5045" y2="622.8398" gradientTransform="matrix(1 0 0 1 0 0.86)">
	<stop  offset="0" style="stop-color:#F2F2F2"/>
	<stop  offset="1" style="stop-color:#E6E6E6;stop-opacity:0.1"/>
</linearGradient>
<polygon style="fill:url(#SVGID_00000032634102534800001370000011012532907213273483_);" points="157.1,600.7 316.6,692.8 
	316.6,508.6 "/>
<polyline class="st10" points="795.1,-0.4 795.1,49.5 881.2,-0.2 "/>
<polyline class="st4" points="881.2,-0.4 795.1,49.3 954.6,141.4 954.6,-0.4 "/>
<polyline class="st3" points="709.1,-0.4 795.3,49.4 795.3,-0.4 "/>
<linearGradient id="SVGID_00000005984266087841604160000005084281956829306801_" gradientUnits="userSpaceOnUse" x1="554.8806" y1="185.7661" x2="475.1247" y2="47.6331" gradientTransform="matrix(1 0 0 1 0 0.86)">
	<stop  offset="0" style="stop-color:#FFFFFF"/>
	<stop  offset="1" style="stop-color:#000000;stop-opacity:0.1"/>
</linearGradient>
<polygon style="fill:url(#SVGID_00000005984266087841604160000005084281956829306801_);" points="475.1,48.5 475.1,232.7 
	634.6,140.6 "/>
<linearGradient id="SVGID_00000137820588531596294380000016948291418924250808_" gradientUnits="userSpaceOnUse" x1="315.79" y1="139.82" x2="475.29" y2="139.82" gradientTransform="matrix(1 0 0 1 0 0.86)">
	<stop  offset="0" style="stop-color:#FFFFFF"/>
	<stop  offset="1" style="stop-color:#000000;stop-opacity:0.1"/>
</linearGradient>
<polygon style="fill:url(#SVGID_00000137820588531596294380000016948291418924250808_);" points="475.3,48.6 315.8,140.7 
	475.3,232.8 "/>
<polygon class="st1" points="634.5,140.3 475,232.4 634.5,324.5 "/>
<polyline class="st1" points="561.1,-0.4 476.1,48.7 635.6,140.8 635.6,-0.4 "/>
<linearGradient id="SVGID_00000180352616929713610870000017662954914431036292_" gradientUnits="userSpaceOnUse" x1="1051.8298" y1="760.32" x2="1051.8298" y2="944.49" gradientTransform="matrix(-1 0 0 -1 2892.6299 1791.9199)">
	<stop  offset="0" style="stop-color:#000000;stop-opacity:0.4"/>
	<stop  offset="1" style="stop-color:#FFFFFF"/>
</linearGradient>
<polygon style="fill:url(#SVGID_00000180352616929713610870000017662954914431036292_);" points="1920.6,939.5 1761.1,847.4 
	1761.1,1031.6 "/>
<polygon class="st1" points="1919.4,938.6 1919.4,754.4 1759.9,846.5 "/>
<linearGradient id="SVGID_00000141414006172999793650000009106886339703184300_" gradientUnits="userSpaceOnUse" x1="1131.2499" y1="852.405" x2="1290.7499" y2="852.405" gradientTransform="matrix(-1 0 0 -1 2892.6299 1791.9199)">
	<stop  offset="0" style="stop-color:#CCCCCC"/>
	<stop  offset="1" style="stop-color:#000000;stop-opacity:0.4"/>
</linearGradient>
<polygon style="fill:url(#SVGID_00000141414006172999793650000009106886339703184300_);" points="1761.4,1031.6 1761.4,847.4 
	1601.9,939.5 "/>
<linearGradient id="SVGID_00000083803396611783833770000005934482773896756655_" gradientUnits="userSpaceOnUse" x1="1760.88" y1="1009.8674" x2="1920.38" y2="1009.8674" gradientTransform="matrix(1 0 0 1 0 0.86)">
	<stop  offset="0" style="stop-color:#FFFFFF"/>
	<stop  offset="1" style="stop-color:#000000;stop-opacity:0.1"/>
</linearGradient>
<polyline style="fill:url(#SVGID_00000083803396611783833770000005934482773896756655_);" points="1920.4,1081.2 1920.4,939.4 
	1760.9,1031.5 1848.4,1082 "/>
<polygon class="st4" points="1922.6,572.5 1763.1,480.4 1763.1,664.6 "/>
<polygon class="st1" points="1922.4,572.6 1922.4,388.4 1762.9,480.5 "/>
<polygon class="st5" points="1762.4,664.6 1762.4,480.4 1602.9,572.5 "/>
<polygon class="st4" points="1922.4,572.4 1762.9,664.5 1922.4,756.6 "/>
<linearGradient id="SVGID_00000047758186599642682780000005221476185643628697_" gradientUnits="userSpaceOnUse" x1="1288.0798" y1="1036.405" x2="1447.5798" y2="1036.405" gradientTransform="matrix(-1 0 0 -1 2892.6299 1791.9199)">
	<stop  offset="0" style="stop-color:#FFFFFF"/>
	<stop  offset="1" style="stop-color:#000000;stop-opacity:0.1"/>
</linearGradient>
<polygon style="fill:url(#SVGID_00000047758186599642682780000005221476185643628697_);" points="1604.6,755.5 1445.1,663.4 
	1445.1,847.6 "/>
<linearGradient id="SVGID_00000073001615169996809430000002101516825521782959_" gradientUnits="userSpaceOnUse" x1="1288.2499" y1="1128.405" x2="1447.7499" y2="1128.405" gradientTransform="matrix(-1 0 0 -1 2892.6299 1791.9199)">
	<stop  offset="0" style="stop-color:#F2F2F2;stop-opacity:0.4"/>
	<stop  offset="1" style="stop-color:#FFFFFF"/>
</linearGradient>
<polygon style="fill:url(#SVGID_00000073001615169996809430000002101516825521782959_);" points="1604.4,755.6 1604.4,571.4 
	1444.9,663.5 "/>
<linearGradient id="SVGID_00000121998173671430274960000002312487491464915384_" gradientUnits="userSpaceOnUse" x1="1447.2499" y1="1036.405" x2="1606.7499" y2="1036.405" gradientTransform="matrix(-1 0 0 -1 2892.6299 1791.9199)">
	<stop  offset="0" style="stop-color:#F2F2F2;stop-opacity:0.4"/>
	<stop  offset="1" style="stop-color:#FFFFFF"/>
</linearGradient>
<polygon style="fill:url(#SVGID_00000121998173671430274960000002312487491464915384_);" points="1445.4,847.6 1445.4,663.4 
	1285.9,755.5 "/>
<linearGradient id="SVGID_00000008120583911309341950000010154312947134543525_" gradientUnits="userSpaceOnUse" x1="1367.9999" y1="1036.49" x2="1367.9999" y2="852.32" gradientTransform="matrix(-1 0 0 -1 2892.6299 1791.9199)">
	<stop  offset="0" style="stop-color:#FFFFFF"/>
	<stop  offset="1" style="stop-color:#000000;stop-opacity:0.1"/>
</linearGradient>
<polygon style="fill:url(#SVGID_00000008120583911309341950000010154312947134543525_);" points="1604.4,755.4 1444.9,847.5 
	1604.4,939.6 "/>
<linearGradient id="SVGID_00000107584361972469893100000012437886983763794859_" gradientUnits="userSpaceOnUse" x1="1677.63" y1="1055.0065" x2="1760.88" y2="1055.0065" gradientTransform="matrix(1 0 0 1 0 0.86)">
	<stop  offset="0" style="stop-color:#FFFFFF"/>
	<stop  offset="1" style="stop-color:#000000;stop-opacity:0.1"/>
</linearGradient>
<polyline style="fill:url(#SVGID_00000107584361972469893100000012437886983763794859_);" points="1760.9,1080.2 1760.9,1031.5 
	1677.6,1079.6 "/>
<linearGradient id="SVGID_00000041263558198706659760000003892834871186441608_" gradientUnits="userSpaceOnUse" x1="1131.7599" y1="782.0035" x2="1291.2599" y2="782.0035" gradientTransform="matrix(-1 0 0 -1 2892.6299 1791.9199)">
	<stop  offset="0" style="stop-color:#FFFFFF"/>
	<stop  offset="1" style="stop-color:#000000;stop-opacity:0.1"/>
</linearGradient>
<polyline style="fill:url(#SVGID_00000041263558198706659760000003892834871186441608_);" points="1677.7,1079.7 1760.9,1031.7 
	1601.4,939.6 1601.4,1080.2 "/>
<polyline class="st3" points="1844.8,1080.2 1760.7,1031.6 1760.7,1080.2 "/>
<polygon class="st12" points="1762.9,848.5 1762.9,664.3 1603.4,756.4 "/>
<linearGradient id="SVGID_00000116922794140929089420000005522340965738923923_" gradientUnits="userSpaceOnUse" x1="1050.1682" y1="1081.6531" x2="1129.9199" y2="943.52" gradientTransform="matrix(-1 0 0 -1 2892.6299 1791.9199)">
	<stop  offset="0" style="stop-color:#FFFFFF"/>
	<stop  offset="1" style="stop-color:#000000;stop-opacity:0.1"/>
</linearGradient>
<polygon style="fill:url(#SVGID_00000116922794140929089420000005522340965738923923_);" points="1762.7,848.4 1922.2,756.3 
	1762.7,664.2 "/>
<polygon class="st5" points="1603.6,756.7 1763.1,664.6 1603.6,572.5 "/>
<linearGradient id="SVGID_00000121998609976664926430000009197935346238351801_" gradientUnits="userSpaceOnUse" x1="1129.7599" y1="943.605" x2="1289.2599" y2="943.605" gradientTransform="matrix(-1 0 0 -1 2892.6299 1791.9199)">
	<stop  offset="0" style="stop-color:#FFFFFF"/>
	<stop  offset="1" style="stop-color:#000000;stop-opacity:0.1"/>
</linearGradient>
<polygon style="fill:url(#SVGID_00000121998609976664926430000009197935346238351801_);" points="1762.9,848.3 1603.4,756.2 
	1603.4,940.4 "/>
<linearGradient id="SVGID_00000035520561245630571050000003472879889145916583_" gradientUnits="userSpaceOnUse" x1="1488.1533" y1="1079.3429" x2="1488.1533" y2="1029.5701" gradientTransform="matrix(1 0 0 1 0 0.86)">
	<stop  offset="0" style="stop-color:#FFFFFF"/>
	<stop  offset="1" style="stop-color:#000000;stop-opacity:0.4"/>
</linearGradient>
<polyline style="fill:url(#SVGID_00000035520561245630571050000003472879889145916583_);" points="1531.3,1080.2 1445.1,1030.4 
	1445.1,1080 "/>
<linearGradient id="SVGID_00000173131295455040219100000011313888408879273900_" gradientUnits="userSpaceOnUse" x1="1367.9999" y1="711.5801" x2="1367.9999" y2="853.49" gradientTransform="matrix(-1 0 0 -1 2892.6299 1791.9199)">
	<stop  offset="0" style="stop-color:#FFFFFF"/>
	<stop  offset="1" style="stop-color:#000000;stop-opacity:0.1"/>
</linearGradient>
<polyline style="fill:url(#SVGID_00000173131295455040219100000011313888408879273900_);" points="1604.4,1080.2 1604.4,938.4 
	1444.9,1030.5 1531.2,1080.3 "/>
<linearGradient id="SVGID_00000112604542678280491320000015965503126716409533_" gradientUnits="userSpaceOnUse" x1="1359.1735" y1="1054.4564" x2="1445.38" y2="1054.4564" gradientTransform="matrix(1 0 0 1 0 0.86)">
	<stop  offset="0" style="stop-color:#FFFFFF"/>
	<stop  offset="1" style="stop-color:#000000;stop-opacity:0.4"/>
</linearGradient>
<polyline style="fill:url(#SVGID_00000112604542678280491320000015965503126716409533_);" points="1445.4,1080 1445.4,1030.4 
	1359.2,1080.2 "/>
<linearGradient id="SVGID_00000010268517799681442740000018200932659067803547_" gradientUnits="userSpaceOnUse" x1="1608.0798" y1="853.405" x2="1767.5798" y2="853.405" gradientTransform="matrix(-1 0 0 -1 2892.6299 1791.9199)">
	<stop  offset="0" style="stop-color:#FFFFFF"/>
	<stop  offset="1" style="stop-color:#E6E6E6;stop-opacity:0.1"/>
</linearGradient>
<polygon style="fill:url(#SVGID_00000010268517799681442740000018200932659067803547_);" points="1284.6,938.5 1125.1,846.4 
	1125.1,1030.6 "/>
<polygon class="st5" points="1284.4,938.6 1284.4,754.4 1124.9,846.5 "/>
<polygon class="st5" points="1125.4,1030.6 1125.4,846.4 965.9,938.5 "/>
<linearGradient id="SVGID_00000104668673130096737620000002537956772486337160_" gradientUnits="userSpaceOnUse" x1="1687.9999" y1="853.49" x2="1687.9999" y2="711.8773" gradientTransform="matrix(-1 0 0 -1 2892.6299 1791.9199)">
	<stop  offset="0" style="stop-color:#FFFFFF"/>
	<stop  offset="0.96" style="stop-color:#999999;stop-opacity:0.13"/>
	<stop  offset="1" style="stop-color:#E6E6E6;stop-opacity:0.1"/>
</linearGradient>
<polyline style="fill:url(#SVGID_00000104668673130096737620000002537956772486337160_);" points="1284.4,1080 1284.4,938.4 
	1124.9,1030.5 1210.7,1080 "/>
<linearGradient id="SVGID_00000098909498541963905300000013695035750377859968_" gradientUnits="userSpaceOnUse" x1="1608.0798" y1="1220.405" x2="1767.5798" y2="1220.405" gradientTransform="matrix(-1 0 0 -1 2892.6299 1791.9199)">
	<stop  offset="0" style="stop-color:#FFFFFF"/>
	<stop  offset="1" style="stop-color:#E6E6E6;stop-opacity:0.1"/>
</linearGradient>
<polygon style="fill:url(#SVGID_00000098909498541963905300000013695035750377859968_);" points="1284.6,571.5 1125.1,479.4 
	1125.1,663.6 "/>
<polygon class="st5" points="1284.4,571.6 1284.4,387.4 1124.9,479.5 "/>
<polygon class="st5" points="1125.4,663.6 1125.4,479.4 965.9,571.5 "/>
<polygon class="st5" points="1284.4,571.4 1124.9,663.5 1284.4,755.6 "/>
<polygon class="st5" points="1444.9,479.5 1285.4,571.6 1444.9,663.7 "/>
<polygon class="st5" points="1444.9,479.7 1285.4,387.6 1285.4,571.8 "/>
<polygon class="st1" points="1445.1,663.4 1285.6,571.3 1285.6,755.5 "/>
<polygon class="st5" points="1444.7,479.6 1444.7,663.8 1604.2,571.7 "/>
<polygon class="st5" points="806.9,1031.6 806.9,847.4 647.4,939.5 "/>
<linearGradient id="SVGID_00000001663096729192316030000015212220391119002759_" gradientUnits="userSpaceOnUse" x1="2085.9099" y1="760.4099" x2="2006.1582" y2="898.543" gradientTransform="matrix(-1 0 0 -1 2892.6299 1791.9199)">
	<stop  offset="0" style="stop-color:#F2F2F2;stop-opacity:0.4"/>
	<stop  offset="1" style="stop-color:#FFFFFF"/>
</linearGradient>
<polygon style="fill:url(#SVGID_00000001663096729192316030000015212220391119002759_);" points="806.7,1031.5 966.2,939.4 
	806.7,847.3 "/>
<polygon class="st5" points="647.5,939.8 807,847.7 647.5,755.6 "/>
<polygon class="st5" points="806.9,1031.4 647.4,939.3 647.4,1123.5 "/>
<linearGradient id="SVGID_00000129164090305365662890000008833369448949247923_" gradientUnits="userSpaceOnUse" x1="806.75" y1="1054.9916" x2="890.0915" y2="1054.9916" gradientTransform="matrix(1 0 0 1 0 0.86)">
	<stop  offset="0" style="stop-color:#FFFFFF"/>
	<stop  offset="1" style="stop-color:#000000;stop-opacity:0.1"/>
</linearGradient>
<polyline style="fill:url(#SVGID_00000129164090305365662890000008833369448949247923_);" points="890.1,1079.8 806.8,1031.9 
	806.9,1078.9 "/>
<polyline class="st1" points="966.2,1079.8 965.8,939.7 806.6,1032.2 889.9,1080 "/>
<linearGradient id="SVGID_00000120525071554898092040000001694385474256179879_" gradientUnits="userSpaceOnUse" x1="724.4647" y1="1054.9417" x2="807.0254" y2="1054.9417" gradientTransform="matrix(1 0 0 1 0 0.86)">
	<stop  offset="0" style="stop-color:#FFFFFF"/>
	<stop  offset="1" style="stop-color:#000000;stop-opacity:0.1"/>
</linearGradient>
<polyline style="fill:url(#SVGID_00000120525071554898092040000001694385474256179879_);" points="807,1078.9 806.9,1031.8 
	724.5,1079.8 "/>
<polygon class="st5" points="806.1,847.6 965.6,755.5 806.1,663.4 "/>
<polygon class="st5" points="806.1,847.4 965.6,939.5 965.6,755.3 "/>
<polygon class="st5" points="806,663.7 965.5,755.8 965.5,571.6 "/>
<polygon class="st5" points="806.3,847.5 806.3,663.3 646.8,755.4 "/>
<polygon class="st5" points="1124.9,847.5 1124.9,663.3 965.4,755.4 "/>
<polygon class="st5" points="1124.7,847.4 1284.2,755.3 1124.7,663.2 "/>
<polygon class="st5" points="965.5,755.7 1125.1,663.6 965.5,571.5 "/>
<polygon class="st5" points="1124.9,847.3 965.4,755.2 965.4,939.4 "/>
<polygon class="st5" points="1919.6,200.5 1760.1,108.4 1760.1,292.6 "/>
<polygon class="st5" points="1919.4,200.6 1919.4,16.4 1759.9,108.5 "/>
<polygon class="st5" points="1760.4,292.6 1760.4,108.4 1600.9,200.5 "/>
<polygon class="st5" points="1919.4,200.4 1759.9,292.5 1919.4,384.6 "/>
<polygon class="st5" points="1604.6,387.5 1445.1,295.4 1445.1,479.6 "/>
<linearGradient id="SVGID_00000137103914945962925870000013325837429185733510_" gradientUnits="userSpaceOnUse" x1="1288.2499" y1="1496.405" x2="1447.7499" y2="1496.405" gradientTransform="matrix(-1 0 0 -1 2892.6299 1791.9199)">
	<stop  offset="0" style="stop-color:#FFFFFF"/>
	<stop  offset="1" style="stop-color:#E6E6E6;stop-opacity:0.1"/>
</linearGradient>
<polygon style="fill:url(#SVGID_00000137103914945962925870000013325837429185733510_);" points="1604.4,387.6 1604.4,203.4 
	1444.9,295.5 "/>
<polygon class="st5" points="1445.4,479.6 1445.4,295.4 1285.9,387.5 "/>
<polygon class="st5" points="1604.4,387.4 1444.9,479.5 1604.4,571.6 "/>
<polygon class="st5" points="1762.9,479.5 1762.9,295.3 1603.4,387.4 "/>
<polygon class="st1" points="1762.7,479.4 1922.2,387.3 1762.7,295.2 "/>
<polygon class="st5" points="1603.6,387.7 1763.1,295.6 1603.6,203.5 "/>
<linearGradient id="SVGID_00000100373419200098295020000014921930600964217770_" gradientUnits="userSpaceOnUse" x1="1169.6344" y1="1243.5372" x2="1329.1344" y2="1335.6272" gradientTransform="matrix(-1 0 0 -1 2892.6299 1791.9199)">
	<stop  offset="0" style="stop-color:#F2F2F2"/>
	<stop  offset="1" style="stop-color:#E6E6E6;stop-opacity:0.1"/>
</linearGradient>
<polygon style="fill:url(#SVGID_00000100373419200098295020000014921930600964217770_);" points="1762.9,479.3 1603.4,387.2 
	1603.4,571.4 "/>
<linearGradient id="SVGID_00000059289708267297192530000003357358926733037492_" gradientUnits="userSpaceOnUse" x1="1039.1241" y1="1054.4264" x2="1124.88" y2="1054.4264" gradientTransform="matrix(1 0 0 1 0 0.86)">
	<stop  offset="0" style="stop-color:#FFFFFF"/>
	<stop  offset="1" style="stop-color:#000000;stop-opacity:0.2"/>
</linearGradient>
<polyline style="fill:url(#SVGID_00000059289708267297192530000003357358926733037492_);" points="1124.9,1080 1124.9,1030.5 
	1039.1,1080 "/>
<polyline class="st4" points="1039.2,1080.2 1124.9,1030.7 965.4,938.6 965.4,1079.8 "/>
<linearGradient id="SVGID_00000064342229334212469530000005165820813711598771_" gradientUnits="userSpaceOnUse" x1="1124.71" y1="1054.5564" x2="1210.5701" y2="1054.5564" gradientTransform="matrix(1 0 0 1 0 0.86)">
	<stop  offset="0" style="stop-color:#CCCCCC"/>
	<stop  offset="1" style="stop-color:#000000;stop-opacity:0.1"/>
</linearGradient>
<polyline style="fill:url(#SVGID_00000064342229334212469530000005165820813711598771_);" points="1210.6,1080.2 1124.7,1030.6 
	1124.7,1080 "/>
<linearGradient id="SVGID_00000027597559959563611920000018394423203891002781_" gradientUnits="userSpaceOnUse" x1="1527.5002" y1="898.5457" x2="1447.7521" y2="760.4188" gradientTransform="matrix(-1 0 0 -1 2892.6299 1791.9199)">
	<stop  offset="0" style="stop-color:#FFFFFF"/>
	<stop  offset="1" style="stop-color:#000000;stop-opacity:0.1"/>
</linearGradient>
<polygon style="fill:url(#SVGID_00000027597559959563611920000018394423203891002781_);" points="1444.9,1031.5 1444.9,847.3 
	1285.4,939.4 "/>
<linearGradient id="SVGID_00000132785898946655275720000001037336820228063375_" gradientUnits="userSpaceOnUse" x1="1288.4199" y1="852.605" x2="1447.9199" y2="852.605" gradientTransform="matrix(-1 0 0 -1 2892.6299 1791.9199)">
	<stop  offset="0" style="stop-color:#FFFFFF"/>
	<stop  offset="1" style="stop-color:#000000;stop-opacity:0.1"/>
</linearGradient>
<polygon style="fill:url(#SVGID_00000132785898946655275720000001037336820228063375_);" points="1444.7,1031.4 1604.2,939.3 
	1444.7,847.2 "/>
<polygon class="st1" points="1285.6,939.7 1445.1,847.6 1285.6,755.5 "/>
<polyline class="st1" points="1359.4,1080.6 1444.9,1031.3 1285.4,939.2 1285.4,1080 "/>
</svg>
