<svg id="Layer_1" data-name="Layer 1" xmlns="http://www.w3.org/2000/svg" xmlns:xlink="http://www.w3.org/1999/xlink" viewBox="0 0 2148.52 2239.93"><defs><style>.cls-1{fill:none;}.cls-2{opacity:0.5;}.cls-3{clip-path:url(#clip-path);}.cls-4{fill:url(#linear-gradient);}.cls-5{fill:url(#linear-gradient-2);}</style><clipPath id="clip-path" transform="translate(30.37 -47.33)"><path id="SVGID" class="cls-1" d="M0,0C-59.45,173.33,1261.75,704.74,1163.68,1059.86c-33.12,119.93-218.19,183.76-215,188.5,4.63,6.93,319.3-248.17,762.86-397.62,34.12-11.5,14.83-4.12,268-79.53,382.81-114,574.28-171.43,577.29-191.45C2587,379.76,79.92-233,0,0Z"/></clipPath><linearGradient id="linear-gradient" x1="314.1" y1="1247.67" x2="2118.15" y2="1247.67" gradientUnits="userSpaceOnUse"><stop offset="0" stop-color="#fff"/><stop offset="0.71" stop-color="#008a73" stop-opacity="0.5"/></linearGradient><linearGradient id="linear-gradient-2" x1="-10.56" y1="948.82" x2="1934.64" y2="948.82" gradientTransform="translate(2106.28 1345.64) rotate(169.78)" gradientUnits="userSpaceOnUse"><stop offset="0" stop-color="#fff" stop-opacity="0.18"/><stop offset="0.84" stop-color="#008a73" stop-opacity="0.5"/></linearGradient></defs><path class="cls-4" d="M330,1136.08C436.7,544.57,1105.06,59.91,1602.66,250c385.86,147.4,565.06,660.82,503.66,1062.8C2018,1891.18,1404.2,2418.08,892.82,2258.28,475,2127.71,250.33,1577.75,330,1136.08Z" transform="translate(30.37 -47.33)"/><path class="cls-5" d="M164.89,1340.2C208.73,1426.45,1997.83,815.13,1949,414.62c-29.72-243.87-732-336.53-978.89-355C794.35,46.49,104.75-5.07-12.8,274.83c-117.67,280.19,400.72,743,220.43,1007.29C183.2,1317.93,159.68,1330,164.89,1340.2Z" transform="translate(30.37 -47.33)"/></svg>