<?xml version="1.0" encoding="utf-8"?>
<!-- Generator: Adobe Illustrator 26.0.1, SVG Export Plug-In . SVG Version: 6.00 Build 0)  -->
<svg version="1.1" id="Layer_1" xmlns="http://www.w3.org/2000/svg" xmlns:xlink="http://www.w3.org/1999/xlink" x="0px" y="0px"
	 viewBox="0 0 1080 1920" style="enable-background:new 0 0 1080 1920;" xml:space="preserve">
<style type="text/css">
	.st0{opacity:0.5;}
	.st1{clip-path:url(#SVGID_00000045577488686666674570000004322258165115514286_);}
	.st2{fill:url(#SVGID_00000066507362916541224910000009357366656343850393_);}
	.st3{fill:url(#SVGID_00000126322323983641689410000007203228471415707812_);}
</style>
<g>
	<g class="st0">
		<g>
			<defs>
				<path id="SVGID_1_" d="M-8.6,17.1C-68,190.4,1253.1,721.8,1155.1,1076.9c-33.1,119.9-218.2,183.8-215,188.5
					c4.6,6.9,319.3-248.2,762.9-397.6c34.1-11.5,14.8-4.1,268-79.5c382.8-114,574.3-171.4,577.3-191.5
					C2578.4,396.8,71.3-215.9-8.6,17.1z"/>
			</defs>
			<clipPath id="SVGID_00000065072948770877544570000001743740938458672561_">
				<use xlink:href="#SVGID_1_"  style="overflow:visible;"/>
			</clipPath>
			<g style="clip-path:url(#SVGID_00000065072948770877544570000001743740938458672561_);">
				<g>
					<defs>
						<rect id="SVGID_00000130627061865416740220000008615357783464384673_" x="-15.6" y="-40" width="2569.1" height="1310.6"/>
					</defs>
					<clipPath id="SVGID_00000014617212351404743570000009666498827360971151_">
						<use xlink:href="#SVGID_00000130627061865416740220000008615357783464384673_"  style="overflow:visible;"/>
					</clipPath>
					
						<g transform="matrix(1 0 0 1 -9.536743e-07 0)" style="clip-path:url(#SVGID_00000014617212351404743570000009666498827360971151_);">
						
							<image style="overflow:visible;" width="5353" height="2732" xlink:href="DB75C802EA397278.jpg"  transform="matrix(0.48 0 0 0.48 -15.84 -40.32)">
						</image>
					</g>
				</g>
			</g>
		</g>
	</g>
	
		<linearGradient id="SVGID_00000145036380954299116810000017799920173871230387_" gradientUnits="userSpaceOnUse" x1="305.5018" y1="1264.7556" x2="2109.5491" y2="1264.7556">
		<stop  offset="0" style="stop-color:#FFFFFF"/>
		<stop  offset="0.7139" style="stop-color:#008A73;stop-opacity:0.5"/>
	</linearGradient>
	<path style="fill:url(#SVGID_00000145036380954299116810000017799920173871230387_);" d="M321.4,1153.2
		C428.1,561.7,1096.5,77,1594.1,267.1c385.9,147.4,565.1,660.8,503.7,1062.8c-88.3,578.4-702.1,1105.3-1213.5,945.5
		C466.4,2144.8,241.7,1594.8,321.4,1153.2z"/>
	
		<linearGradient id="SVGID_00000070114623560457452510000001839545619683458698_" gradientUnits="userSpaceOnUse" x1="-904.9168" y1="1613.7518" x2="1288.8506" y2="1613.7518" gradientTransform="matrix(-0.9841 0.1774 -0.1774 -0.9841 1349.4146 2253.2976)">
		<stop  offset="0" style="stop-color:#FFFFFF;stop-opacity:0.18"/>
		<stop  offset="0.8399" style="stop-color:#008A73;stop-opacity:0.5"/>
	</linearGradient>
	<path style="fill:url(#SVGID_00000070114623560457452510000001839545619683458698_);" d="M-57.6,1553.7
		C-8.2,1651,2009.5,961.5,1954.5,509.9c-33.5-275-825.6-379.5-1104-400.4c-198.2-14.8-976-73-1108.5,242.7
		c-132.7,316,451.9,837.9,248.6,1136C-37,1528.6-63.5,1542.2-57.6,1553.7z"/>
</g>
</svg>
