<?xml version="1.0" encoding="utf-8"?>
<!-- Generator: Adobe Illustrator 26.0.1, SVG Export Plug-In . SVG Version: 6.00 Build 0)  -->
<svg version="1.1" id="Layer_1" xmlns="http://www.w3.org/2000/svg" xmlns:xlink="http://www.w3.org/1999/xlink" x="0px" y="0px"
	 viewBox="0 0 1080 1920" style="enable-background:new 0 0 1080 1920;" xml:space="preserve">
<style type="text/css">
	.st0{fill:url(#SVGID_1_);}
	.st1{fill:#F2F2F2;}
	.st2{fill:url(#SVGID_00000065780293314262600690000014262776615002562458_);}
	.st3{fill:#999999;}
	.st4{fill:#E6E6E6;}
	.st5{fill:none;}
	.st6{fill:url(#SVGID_00000142150959504108852220000002188546518122239387_);}
	.st7{fill:url(#SVGID_00000127745197486811895290000013588292544735390638_);}
	.st8{fill:url(#SVGID_00000036961837364191262000000013285544977075329706_);}
	.st9{fill:url(#SVGID_00000051361244193533747060000009769366659208224417_);}
	.st10{fill:#666666;}
	.st11{fill:url(#SVGID_00000009573088346686208200000011522379284246236830_);}
	.st12{fill:#CCCCCC;}
	.st13{fill:url(#SVGID_00000179646520785136230240000004968775506995243398_);}
	.st14{fill:url(#SVGID_00000109748955476795248470000004660714153413607561_);}
	.st15{fill:url(#SVGID_00000091704607955096803740000006025849298278305699_);}
	.st16{fill:url(#SVGID_00000151531314912863605780000003123275363918598569_);}
	.st17{fill:url(#SVGID_00000183240149920831598500000000931596546192703627_);}
	.st18{fill:url(#SVGID_00000009561465387436585290000004895392239307018656_);}
	.st19{fill:url(#SVGID_00000164502789400819541620000012132065836353360543_);}
	.st20{fill:#B3B3B3;}
	.st21{fill:url(#SVGID_00000089575520426166375420000015176297570817575602_);}
	.st22{fill:url(#SVGID_00000017511329736704801900000003323609441542738833_);}
	.st23{fill:url(#SVGID_00000170964280264888042000000009221244458720632730_);}
	.st24{fill:url(#SVGID_00000064330698624467016950000010945380633320559768_);}
	.st25{fill:url(#SVGID_00000025423497876259158650000009285933822709518781_);}
	.st26{fill:url(#SVGID_00000022559281759406515520000017092496944103200422_);}
	.st27{fill:url(#SVGID_00000077322376799843966440000009486378221044213905_);}
	.st28{fill:url(#SVGID_00000156550048435261198180000003958797337349259709_);}
	.st29{fill:url(#SVGID_00000108286274809308193740000012724771741212784813_);}
	.st30{fill:url(#SVGID_00000163034705951010226350000016733593723808940970_);}
	.st31{fill:url(#SVGID_00000070098441401143871060000006222668469917591177_);}
	.st32{fill:url(#SVGID_00000145771738911827213760000018087498149454037910_);}
	.st33{fill:url(#SVGID_00000179622803388923295540000006742942689482165423_);}
	.st34{fill:url(#SVGID_00000026868827669094646530000000953288498490986920_);}
	.st35{fill:url(#SVGID_00000137852573195121585730000013979613384386556564_);}
	.st36{fill:url(#SVGID_00000026126937604882859560000013510808677035860135_);}
	.st37{fill:url(#SVGID_00000168797489728632598190000008842024493071135679_);}
	.st38{fill:url(#SVGID_00000106858371029727086290000013610970898853065368_);}
	.st39{fill:url(#SVGID_00000005946243785392022350000012522925514073878958_);}
	.st40{fill:url(#SVGID_00000046332322470582754390000005250609728612811155_);}
	.st41{fill:url(#SVGID_00000176027985143650434070000004816436007828958627_);}
	.st42{fill:url(#SVGID_00000088839404834984312870000001608647192606332846_);}
	.st43{fill:url(#SVGID_00000074427075735033185990000008217298693594294704_);}
	.st44{fill:url(#SVGID_00000106847233123883956460000008557895254446537121_);}
	.st45{fill:url(#SVGID_00000098903699963796270540000005059594732999072910_);}
	.st46{fill:url(#SVGID_00000074430511616890524220000003890977493184842936_);}
	.st47{fill:url(#SVGID_00000028302540141909558590000000600218652278566835_);}
	.st48{fill:url(#SVGID_00000124876452642666939470000008598938149120221351_);}
	.st49{fill:url(#SVGID_00000145747711855200388280000008781890594138453657_);}
	.st50{fill:url(#SVGID_00000002349042569554163280000017279780082405349558_);}
</style>
<linearGradient id="SVGID_1_" gradientUnits="userSpaceOnUse" x1="-706.13" y1="861.7102" x2="-706.13" y2="677.5402" gradientTransform="matrix(-1 0 0 1 447.66 972.8899)">
	<stop  offset="0" style="stop-color:#000000;stop-opacity:0.4"/>
	<stop  offset="1" style="stop-color:#FFFFFF"/>
</linearGradient>
<polygon class="st0" points="1233.5,1742.5 1074,1650.4 1074,1834.6 "/>
<polygon class="st1" points="1233.4,1742.6 1233.4,1558.4 1073.9,1650.5 "/>
<linearGradient id="SVGID_00000121272966122629690920000015098552903830345093_" gradientUnits="userSpaceOnUse" x1="-626.72" y1="769.6252" x2="-467.22" y2="769.6252" gradientTransform="matrix(-1 0 0 1 447.66 972.8899)">
	<stop  offset="0" style="stop-color:#CCCCCC"/>
	<stop  offset="1" style="stop-color:#000000;stop-opacity:0.4"/>
</linearGradient>
<polygon style="fill:url(#SVGID_00000121272966122629690920000015098552903830345093_);" points="1074.4,1834.6 1074.4,1650.4 
	914.9,1742.5 "/>
<polygon class="st3" points="1233.4,1742.4 1073.9,1834.5 1233.4,1926.6 "/>
<polygon class="st4" points="1236.5,1376.5 1077,1284.4 1077,1468.6 "/>
<polygon class="st1" points="1236.4,1376.6 1236.4,1192.4 1076.9,1284.5 "/>
<polygon class="st5" points="1076.4,1468.6 1076.4,1284.4 916.9,1376.5 "/>
<polygon class="st4" points="1236.4,1376.4 1076.9,1468.5 1236.4,1560.6 "/>
<linearGradient id="SVGID_00000124152660893801087050000000798724096939453581_" gradientUnits="userSpaceOnUse" x1="-470.88" y1="586.6252" x2="-311.38" y2="586.6252" gradientTransform="matrix(-1 0 0 1 447.66 972.8899)">
	<stop  offset="0" style="stop-color:#FFFFFF"/>
	<stop  offset="1" style="stop-color:#000000;stop-opacity:0.1"/>
</linearGradient>
<polygon style="fill:url(#SVGID_00000124152660893801087050000000798724096939453581_);" points="918.5,1559.5 759,1467.4 
	759,1651.6 "/>
<linearGradient id="SVGID_00000170962424839357239230000009440928714123715250_" gradientUnits="userSpaceOnUse" x1="-470.71" y1="494.6252" x2="-311.21" y2="494.6252" gradientTransform="matrix(-1 0 0 1 447.66 972.8899)">
	<stop  offset="0" style="stop-color:#F2F2F2;stop-opacity:0.4"/>
	<stop  offset="1" style="stop-color:#FFFFFF"/>
</linearGradient>
<polygon style="fill:url(#SVGID_00000170962424839357239230000009440928714123715250_);" points="918.4,1559.6 918.4,1375.4 
	758.9,1467.5 "/>
<linearGradient id="SVGID_00000074432624132006103190000001913440656843108536_" gradientUnits="userSpaceOnUse" x1="-311.71" y1="586.6252" x2="-152.21" y2="586.6252" gradientTransform="matrix(-1 0 0 1 447.66 972.8899)">
	<stop  offset="0" style="stop-color:#F2F2F2;stop-opacity:0.4"/>
	<stop  offset="1" style="stop-color:#FFFFFF"/>
</linearGradient>
<polygon style="fill:url(#SVGID_00000074432624132006103190000001913440656843108536_);" points="759.4,1651.6 759.4,1467.4 
	599.9,1559.5 "/>
<linearGradient id="SVGID_00000163072225477379153640000011926792111066203558_" gradientUnits="userSpaceOnUse" x1="-390.965" y1="586.5402" x2="-390.965" y2="770.7102" gradientTransform="matrix(-1 0 0 1 447.66 972.8899)">
	<stop  offset="0" style="stop-color:#FFFFFF"/>
	<stop  offset="1" style="stop-color:#000000;stop-opacity:0.1"/>
</linearGradient>
<polygon style="fill:url(#SVGID_00000163072225477379153640000011926792111066203558_);" points="918.4,1559.4 758.9,1651.5 
	918.4,1743.6 "/>
<polygon class="st10" points="1077.9,1835.5 918.4,1927.6 1077.9,2019.7 "/>
<linearGradient id="SVGID_00000068635386797068964450000014788642040516832172_" gradientUnits="userSpaceOnUse" x1="-630.21" y1="862.8252" x2="-470.71" y2="862.8252" gradientTransform="matrix(-1 0 0 1 447.66 972.8899)">
	<stop  offset="0" style="stop-color:#FFFFFF"/>
	<stop  offset="1" style="stop-color:#000000;stop-opacity:0.1"/>
</linearGradient>
<polygon style="fill:url(#SVGID_00000068635386797068964450000014788642040516832172_);" points="1077.9,1835.7 918.4,1743.6 
	918.4,1927.8 "/>
<polygon class="st3" points="1078,2019.4 918.5,1927.3 918.5,2111.5 "/>
<polygon class="st3" points="1077.7,1835.6 1077.7,2019.8 1237.2,1927.7 "/>
<polygon class="st12" points="1076.9,1652.5 1076.9,1468.3 917.4,1560.4 "/>
<linearGradient id="SVGID_00000039843458946838757160000014437101522109045938_" gradientUnits="userSpaceOnUse" x1="-708.8018" y1="541.3771" x2="-629.05" y2="679.5101" gradientTransform="matrix(-1 0 0 1 447.66 972.8899)">
	<stop  offset="0" style="stop-color:#FFFFFF"/>
	<stop  offset="1" style="stop-color:#000000;stop-opacity:0.1"/>
</linearGradient>
<polygon style="fill:url(#SVGID_00000039843458946838757160000014437101522109045938_);" points="1076.7,1652.4 1236.2,1560.3 
	1076.7,1468.2 "/>
<polygon class="st5" points="917.5,1560.7 1077,1468.6 917.5,1376.5 "/>
<linearGradient id="SVGID_00000027596311527593212930000003028270980041374627_" gradientUnits="userSpaceOnUse" x1="-629.21" y1="679.4252" x2="-469.71" y2="679.4252" gradientTransform="matrix(-1 0 0 1 447.66 972.8899)">
	<stop  offset="0" style="stop-color:#FFFFFF"/>
	<stop  offset="1" style="stop-color:#000000;stop-opacity:0.1"/>
</linearGradient>
<polygon style="fill:url(#SVGID_00000027596311527593212930000003028270980041374627_);" points="1076.9,1652.3 917.4,1560.2 
	917.4,1744.4 "/>
<polygon class="st10" points="918.5,1926.5 759,1834.4 759,2018.6 "/>
<linearGradient id="SVGID_00000096755913379146206850000012917392678676591757_" gradientUnits="userSpaceOnUse" x1="-390.97" y1="953.7101" x2="-390.97" y2="769.5402" gradientTransform="matrix(-1 0 0 1 447.66 972.8899)">
	<stop  offset="0" style="stop-color:#FFFFFF"/>
	<stop  offset="1" style="stop-color:#000000;stop-opacity:0.1"/>
</linearGradient>
<polygon style="fill:url(#SVGID_00000096755913379146206850000012917392678676591757_);" points="918.4,1926.6 918.4,1742.4 
	758.9,1834.5 "/>
<polygon class="st3" points="759.4,2018.6 759.4,1834.4 599.9,1926.5 "/>
<polygon class="st3" points="918.4,1926.4 758.9,2018.5 918.4,2110.6 "/>
<linearGradient id="SVGID_00000094604333116457552860000004119737790941590172_" gradientUnits="userSpaceOnUse" x1="-150.88" y1="769.6252" x2="8.62" y2="769.6252" gradientTransform="matrix(-1 0 0 1 447.66 972.8899)">
	<stop  offset="0" style="stop-color:#FFFFFF"/>
	<stop  offset="1" style="stop-color:#E6E6E6;stop-opacity:0.1"/>
</linearGradient>
<polygon style="fill:url(#SVGID_00000094604333116457552860000004119737790941590172_);" points="598.5,1742.5 439,1650.4 
	439,1834.6 "/>
<polygon class="st5" points="598.4,1742.6 598.4,1558.4 438.9,1650.5 "/>
<polygon class="st5" points="439.4,1834.6 439.4,1650.4 279.9,1742.5 "/>
<linearGradient id="SVGID_00000072995122556678242010000000704737541359460480_" gradientUnits="userSpaceOnUse" x1="-70.97" y1="769.5402" x2="-70.97" y2="953.7101" gradientTransform="matrix(-1 0 0 1 447.66 972.8899)">
	<stop  offset="0" style="stop-color:#FFFFFF"/>
	<stop  offset="0.96" style="stop-color:#999999;stop-opacity:0.13"/>
	<stop  offset="1" style="stop-color:#E6E6E6;stop-opacity:0.1"/>
</linearGradient>
<polygon style="fill:url(#SVGID_00000072995122556678242010000000704737541359460480_);" points="598.4,1742.4 438.9,1834.5 
	598.4,1926.6 "/>
<linearGradient id="SVGID_00000013177436685297361820000015243917987720472961_" gradientUnits="userSpaceOnUse" x1="-150.88" y1="402.6252" x2="8.62" y2="402.6252" gradientTransform="matrix(-1 0 0 1 447.66 972.8899)">
	<stop  offset="0" style="stop-color:#FFFFFF"/>
	<stop  offset="1" style="stop-color:#E6E6E6;stop-opacity:0.1"/>
</linearGradient>
<polygon style="fill:url(#SVGID_00000013177436685297361820000015243917987720472961_);" points="598.5,1375.5 439,1283.4 
	439,1467.6 "/>
<polygon class="st5" points="598.4,1375.6 598.4,1191.4 438.9,1283.5 "/>
<polygon class="st5" points="439.4,1467.6 439.4,1283.4 279.9,1375.5 "/>
<polygon class="st5" points="598.4,1375.4 438.9,1467.5 598.4,1559.6 "/>
<polygon class="st5" points="758.9,1283.5 599.4,1375.6 758.9,1467.7 "/>
<polygon class="st5" points="758.9,1283.7 599.4,1191.6 599.4,1375.8 "/>
<polygon class="st1" points="759,1467.4 599.5,1375.3 599.5,1559.5 "/>
<polygon class="st5" points="758.7,1283.6 758.7,1467.8 918.2,1375.7 "/>
<polygon class="st5" points="120.9,1835.6 120.9,1651.4 -38.6,1743.5 "/>
<linearGradient id="SVGID_00000166656547043021738950000002588025547784900019_" gradientUnits="userSpaceOnUse" x1="326.9356" y1="862.6226" x2="247.1897" y2="724.4896" gradientTransform="matrix(-1 0 0 1 447.66 972.8899)">
	<stop  offset="0" style="stop-color:#F2F2F2;stop-opacity:0.4"/>
	<stop  offset="1" style="stop-color:#FFFFFF"/>
</linearGradient>
<polygon style="fill:url(#SVGID_00000166656547043021738950000002588025547784900019_);" points="120.7,1835.5 280.2,1743.4 
	120.7,1651.3 "/>
<polygon class="st5" points="-38.5,1743.8 121,1651.7 -38.5,1559.6 "/>
<polygon class="st5" points="120.9,1835.4 -38.6,1743.3 -38.6,1927.5 "/>
<polygon class="st20" points="121.3,2020.1 280.5,1927.6 120.7,1836 "/>
<polygon class="st4" points="121.3,2019.9 281,2111.6 280.5,1927.4 "/>
<polygon class="st1" points="120.6,1836.2 280.3,1927.9 279.8,1743.7 "/>
<polygon class="st3" points="121.4,2020 120.9,1835.9 -38.3,1928.4 "/>
<polygon class="st5" points="120.1,1651.6 279.6,1559.5 120.1,1467.4 "/>
<polygon class="st5" points="120.1,1651.4 279.6,1743.5 279.6,1559.3 "/>
<polygon class="st5" points="120,1467.7 279.5,1559.8 279.5,1375.6 "/>
<polygon class="st5" points="120.3,1651.5 120.3,1467.3 -39.2,1559.4 "/>
<polygon class="st5" points="438.9,1651.5 438.9,1467.3 279.4,1559.4 "/>
<polygon class="st5" points="438.7,1651.4 598.2,1559.3 438.7,1467.2 "/>
<polygon class="st5" points="279.5,1559.7 439,1467.6 279.5,1375.5 "/>
<polygon class="st5" points="438.9,1651.3 279.4,1559.2 279.4,1743.4 "/>
<polygon class="st5" points="1233.5,1004.5 1074,912.4 1074,1096.6 "/>
<polygon class="st5" points="1233.4,1004.6 1233.4,820.4 1073.9,912.5 "/>
<polygon class="st5" points="1074.4,1096.6 1074.4,912.4 914.9,1004.5 "/>
<polygon class="st5" points="1233.4,1004.4 1073.9,1096.5 1233.4,1188.6 "/>
<polygon class="st5" points="918.5,1191.5 759,1099.4 759,1283.6 "/>
<linearGradient id="SVGID_00000041297646610519418830000011099492776978159529_" gradientUnits="userSpaceOnUse" x1="-470.71" y1="126.6252" x2="-311.21" y2="126.6252" gradientTransform="matrix(-1 0 0 1 447.66 972.8899)">
	<stop  offset="0" style="stop-color:#FFFFFF"/>
	<stop  offset="1" style="stop-color:#E6E6E6;stop-opacity:0.1"/>
</linearGradient>
<polygon style="fill:url(#SVGID_00000041297646610519418830000011099492776978159529_);" points="918.4,1191.6 918.4,1007.4 
	758.9,1099.5 "/>
<polygon class="st5" points="759.4,1283.6 759.4,1099.4 599.9,1191.5 "/>
<polygon class="st5" points="918.4,1191.4 758.9,1283.5 918.4,1375.6 "/>
<polygon class="st5" points="1076.9,1283.5 1076.9,1099.3 917.4,1191.4 "/>
<polygon class="st1" points="1076.7,1283.4 1236.2,1191.3 1076.7,1099.2 "/>
<polygon class="st5" points="917.5,1191.7 1077,1099.6 917.5,1007.5 "/>
<linearGradient id="SVGID_00000141445186072752004510000007875070737198966192_" gradientUnits="userSpaceOnUse" x1="-589.3376" y1="379.4867" x2="-429.8301" y2="287.4023" gradientTransform="matrix(-1 0 0 1 447.66 972.8899)">
	<stop  offset="0" style="stop-color:#F2F2F2"/>
	<stop  offset="1" style="stop-color:#E6E6E6;stop-opacity:0.1"/>
</linearGradient>
<polygon style="fill:url(#SVGID_00000141445186072752004510000007875070737198966192_);" points="1076.9,1283.3 917.4,1191.2 
	917.4,1375.4 "/>
<polygon class="st10" points="438.9,1834.5 279.4,1926.6 438.9,2018.7 "/>
<polygon class="st4" points="438.9,1834.7 279.4,1742.6 279.4,1926.8 "/>
<polygon class="st3" points="439,2018.4 279.5,1926.3 279.5,2110.5 "/>
<polygon class="st3" points="438.7,1834.6 438.7,2018.8 598.2,1926.7 "/>
<linearGradient id="SVGID_00000130643948177093186800000001376104720398463622_" gradientUnits="userSpaceOnUse" x1="-231.4645" y1="724.4792" x2="-311.2162" y2="862.6122" gradientTransform="matrix(-1 0 0 1 447.66 972.8899)">
	<stop  offset="0" style="stop-color:#FFFFFF"/>
	<stop  offset="1" style="stop-color:#000000;stop-opacity:0.1"/>
</linearGradient>
<polygon style="fill:url(#SVGID_00000130643948177093186800000001376104720398463622_);" points="758.9,1835.5 758.9,1651.3 
	599.4,1743.4 "/>
<linearGradient id="SVGID_00000110433586452230393300000015690880151068575121_" gradientUnits="userSpaceOnUse" x1="-470.5599" y1="770.4252" x2="-311.05" y2="770.4252" gradientTransform="matrix(-1 0 0 1 447.66 972.8899)">
	<stop  offset="0" style="stop-color:#FFFFFF"/>
	<stop  offset="1" style="stop-color:#000000;stop-opacity:0.1"/>
</linearGradient>
<polygon style="fill:url(#SVGID_00000110433586452230393300000015690880151068575121_);" points="758.7,1835.4 918.2,1743.3 
	758.7,1651.2 "/>
<polygon class="st1" points="599.5,1743.7 759,1651.6 599.5,1559.5 "/>
<polygon class="st1" points="758.9,1835.3 599.4,1743.2 599.4,1927.4 "/>
<linearGradient id="SVGID_00000017516276758278074250000007031556815964917944_" gradientUnits="userSpaceOnUse" x1="689.87" y1="1533.7201" x2="689.87" y2="1349.55" gradientTransform="matrix(1 0 0 -1 -763.66 1619.1201)">
	<stop  offset="0" style="stop-color:#000000;stop-opacity:0.4"/>
	<stop  offset="1" style="stop-color:#FFFFFF"/>
</linearGradient>
<polygon style="fill:url(#SVGID_00000017516276758278074250000007031556815964917944_);" points="-153.5,177.5 6,269.6 6,85.4 "/>
<polygon class="st1" points="-153.4,177.4 -153.4,361.6 6.1,269.5 "/>
<linearGradient id="SVGID_00000147209216550453734860000002352741788570560906_" gradientUnits="userSpaceOnUse" x1="769.28" y1="1441.635" x2="928.78" y2="1441.635" gradientTransform="matrix(1 0 0 -1 -763.66 1619.1201)">
	<stop  offset="0" style="stop-color:#CCCCCC"/>
	<stop  offset="1" style="stop-color:#000000;stop-opacity:0.4"/>
</linearGradient>
<polygon style="fill:url(#SVGID_00000147209216550453734860000002352741788570560906_);" points="5.6,85.4 5.6,269.6 165.1,177.5 
	"/>
<linearGradient id="SVGID_00000000192979446473095140000004120149861934506395_" gradientUnits="userSpaceOnUse" x1="441.54" y1="-887.4048" x2="601.04" y2="-887.4048" gradientTransform="matrix(-1 0 0 1 447.66 972.8899)">
	<stop  offset="0" style="stop-color:#FFFFFF"/>
	<stop  offset="1" style="stop-color:#000000;stop-opacity:0.1"/>
</linearGradient>
<polygon style="fill:url(#SVGID_00000000192979446473095140000004120149861934506395_);" points="-153.4,177.6 6.1,85.5 
	-153.4,-6.6 "/>
<polygon class="st4" points="-156.5,543.5 3,635.6 3,451.4 "/>
<polygon class="st1" points="-156.4,543.4 -156.4,727.6 3.1,635.5 "/>
<polygon class="st5" points="3.6,451.4 3.6,635.6 163.1,543.5 "/>
<polygon class="st4" points="-156.4,543.6 3.1,451.5 -156.4,359.4 "/>
<linearGradient id="SVGID_00000168106638302059052730000009056156971153598907_" gradientUnits="userSpaceOnUse" x1="925.12" y1="1258.635" x2="1084.62" y2="1258.635" gradientTransform="matrix(1 0 0 -1 -763.66 1619.1201)">
	<stop  offset="0" style="stop-color:#FFFFFF"/>
	<stop  offset="1" style="stop-color:#000000;stop-opacity:0.1"/>
</linearGradient>
<polygon style="fill:url(#SVGID_00000168106638302059052730000009056156971153598907_);" points="161.5,360.5 321,452.6 321,268.4 
	"/>
<linearGradient id="SVGID_00000073718891213787072220000014168372968448151695_" gradientUnits="userSpaceOnUse" x1="925.28" y1="1166.635" x2="1084.78" y2="1166.635" gradientTransform="matrix(1 0 0 -1 -763.66 1619.1201)">
	<stop  offset="0" style="stop-color:#F2F2F2;stop-opacity:0.4"/>
	<stop  offset="1" style="stop-color:#FFFFFF"/>
</linearGradient>
<polygon style="fill:url(#SVGID_00000073718891213787072220000014168372968448151695_);" points="161.6,360.4 161.6,544.6 
	321.1,452.5 "/>
<linearGradient id="SVGID_00000112593771131041959810000001923901073556653972_" gradientUnits="userSpaceOnUse" x1="1084.28" y1="1258.635" x2="1243.78" y2="1258.635" gradientTransform="matrix(1 0 0 -1 -763.66 1619.1201)">
	<stop  offset="0" style="stop-color:#F2F2F2;stop-opacity:0.4"/>
	<stop  offset="1" style="stop-color:#FFFFFF"/>
</linearGradient>
<polygon style="fill:url(#SVGID_00000112593771131041959810000001923901073556653972_);" points="320.6,268.4 320.6,452.6 
	480.1,360.5 "/>
<linearGradient id="SVGID_00000005230406780711259630000000054922835527263623_" gradientUnits="userSpaceOnUse" x1="1005.03" y1="1258.55" x2="1005.03" y2="1442.7201" gradientTransform="matrix(1 0 0 -1 -763.66 1619.1201)">
	<stop  offset="0" style="stop-color:#FFFFFF"/>
	<stop  offset="1" style="stop-color:#000000;stop-opacity:0.1"/>
</linearGradient>
<polygon style="fill:url(#SVGID_00000005230406780711259630000000054922835527263623_);" points="161.6,360.6 321.1,268.5 
	161.6,176.4 "/>
<linearGradient id="SVGID_00000063626514029269394210000005733882937657517203_" gradientUnits="userSpaceOnUse" x1="286.04" y1="-980.5048" x2="445.54" y2="-980.5048" gradientTransform="matrix(-1 0 0 1 447.66 972.8899)">
	<stop  offset="0" style="stop-color:#FFFFFF"/>
	<stop  offset="1" style="stop-color:#000000;stop-opacity:0.1"/>
</linearGradient>
<polygon style="fill:url(#SVGID_00000063626514029269394210000005733882937657517203_);" points="2.1,84.5 161.6,-7.6 2.1,-99.7 "/>
<linearGradient id="SVGID_00000121253348163778295240000018364546520673660567_" gradientUnits="userSpaceOnUse" x1="765.79" y1="1534.8401" x2="925.29" y2="1534.8401" gradientTransform="matrix(1 0 0 -1 -763.66 1619.1201)">
	<stop  offset="0" style="stop-color:#FFFFFF"/>
	<stop  offset="1" style="stop-color:#000000;stop-opacity:0.1"/>
</linearGradient>
<polygon style="fill:url(#SVGID_00000121253348163778295240000018364546520673660567_);" points="2.1,84.3 161.6,176.4 161.6,-7.8 
	"/>
<polygon class="st3" points="2,-99.4 161.5,-7.3 161.5,-191.5 "/>
<polygon class="st3" points="2.3,84.4 2.3,-99.8 -157.2,-7.7 "/>
<polygon class="st12" points="3.1,267.5 3.1,451.7 162.6,359.6 "/>
<linearGradient id="SVGID_00000026144340034280352110000015189084607697696947_" gradientUnits="userSpaceOnUse" x1="687.1882" y1="1213.3871" x2="766.94" y2="1351.52" gradientTransform="matrix(1 0 0 -1 -763.66 1619.1201)">
	<stop  offset="0" style="stop-color:#FFFFFF"/>
	<stop  offset="1" style="stop-color:#000000;stop-opacity:0.1"/>
</linearGradient>
<polygon style="fill:url(#SVGID_00000026144340034280352110000015189084607697696947_);" points="3.3,267.6 -156.2,359.7 3.3,451.8 
	"/>
<polygon class="st5" points="162.5,359.3 3,451.4 162.5,543.5 "/>
<linearGradient id="SVGID_00000132050799124319247640000002905570786820725929_" gradientUnits="userSpaceOnUse" x1="766.79" y1="1351.4351" x2="926.29" y2="1351.4351" gradientTransform="matrix(1 0 0 -1 -763.66 1619.1201)">
	<stop  offset="0" style="stop-color:#FFFFFF"/>
	<stop  offset="1" style="stop-color:#000000;stop-opacity:0.1"/>
</linearGradient>
<polygon style="fill:url(#SVGID_00000132050799124319247640000002905570786820725929_);" points="3.1,267.7 162.6,359.8 
	162.6,175.6 "/>
<linearGradient id="SVGID_00000053510113761417458850000014032895702104980911_" gradientUnits="userSpaceOnUse" x1="206.455" y1="-1071.4899" x2="206.455" y2="-887.3198" gradientTransform="matrix(-1 0 0 1 447.66 972.8899)">
	<stop  offset="0" style="stop-color:#FFFFFF"/>
	<stop  offset="1" style="stop-color:#000000;stop-opacity:0.4"/>
</linearGradient>
<polygon style="fill:url(#SVGID_00000053510113761417458850000014032895702104980911_);" points="161.5,-6.5 321,85.6 321,-98.6 "/>
<linearGradient id="SVGID_00000051347143344434684060000014748559184115377329_" gradientUnits="userSpaceOnUse" x1="1005.03" y1="1625.7201" x2="1005.03" y2="1441.55" gradientTransform="matrix(1 0 0 -1 -763.66 1619.1201)">
	<stop  offset="0" style="stop-color:#FFFFFF"/>
	<stop  offset="1" style="stop-color:#000000;stop-opacity:0.1"/>
</linearGradient>
<polygon style="fill:url(#SVGID_00000051347143344434684060000014748559184115377329_);" points="161.6,-6.6 161.6,177.6 
	321.1,85.5 "/>
<linearGradient id="SVGID_00000119088411211583415540000011135190725935298210_" gradientUnits="userSpaceOnUse" x1="-32.46" y1="-979.4048" x2="127.04" y2="-979.4048" gradientTransform="matrix(-1 0 0 1 447.66 972.8899)">
	<stop  offset="0" style="stop-color:#FFFFFF"/>
	<stop  offset="1" style="stop-color:#000000;stop-opacity:0.4"/>
</linearGradient>
<polygon style="fill:url(#SVGID_00000119088411211583415540000011135190725935298210_);" points="320.6,-98.6 320.6,85.6 
	480.1,-6.5 "/>
<polygon class="st3" points="161.6,-6.4 321.1,-98.5 161.6,-190.6 "/>
<linearGradient id="SVGID_00000100379864739396086900000007828555100501243527_" gradientUnits="userSpaceOnUse" x1="1245.12" y1="1441.64" x2="1404.62" y2="1441.64" gradientTransform="matrix(1 0 0 -1 -763.66 1619.1201)">
	<stop  offset="0" style="stop-color:#FFFFFF"/>
	<stop  offset="1" style="stop-color:#E6E6E6;stop-opacity:0.1"/>
</linearGradient>
<polygon style="fill:url(#SVGID_00000100379864739396086900000007828555100501243527_);" points="481.5,177.5 641,269.6 641,85.4 
	"/>
<polygon class="st5" points="481.6,177.4 481.6,361.6 641.1,269.5 "/>
<polygon class="st5" points="640.6,85.4 640.6,269.6 800.1,177.5 "/>
<linearGradient id="SVGID_00000173150494814195618720000018378540012011907465_" gradientUnits="userSpaceOnUse" x1="1325.03" y1="1441.55" x2="1325.03" y2="1625.7201" gradientTransform="matrix(1 0 0 -1 -763.66 1619.1201)">
	<stop  offset="0" style="stop-color:#FFFFFF"/>
	<stop  offset="0.96" style="stop-color:#999999;stop-opacity:0.13"/>
	<stop  offset="1" style="stop-color:#E6E6E6;stop-opacity:0.1"/>
</linearGradient>
<polygon style="fill:url(#SVGID_00000173150494814195618720000018378540012011907465_);" points="481.6,177.6 641.1,85.5 
	481.6,-6.6 "/>
<linearGradient id="SVGID_00000066485197445518935810000001444369234725176736_" gradientUnits="userSpaceOnUse" x1="1245.12" y1="1074.64" x2="1404.62" y2="1074.64" gradientTransform="matrix(1 0 0 -1 -763.66 1619.1201)">
	<stop  offset="0" style="stop-color:#FFFFFF"/>
	<stop  offset="1" style="stop-color:#E6E6E6;stop-opacity:0.1"/>
</linearGradient>
<polygon style="fill:url(#SVGID_00000066485197445518935810000001444369234725176736_);" points="481.5,544.5 641,636.6 641,452.4 
	"/>
<polygon class="st5" points="481.6,544.4 481.6,728.6 641.1,636.5 "/>
<polygon class="st5" points="640.6,452.4 640.6,636.6 800.1,544.5 "/>
<polygon class="st5" points="481.6,544.6 641.1,452.5 481.6,360.4 "/>
<polygon class="st5" points="321.1,636.5 480.6,544.4 321.1,452.3 "/>
<polygon class="st5" points="321.1,636.3 480.6,728.4 480.6,544.2 "/>
<polygon class="st1" points="321,452.6 480.5,544.7 480.5,360.5 "/>
<polygon class="st5" points="321.3,636.4 321.3,452.2 161.8,544.3 "/>
<polygon class="st5" points="959.1,84.4 959.1,268.6 1118.6,176.5 "/>
<linearGradient id="SVGID_00000068639998495214592030000016920079487116825985_" gradientUnits="userSpaceOnUse" x1="1722.9379" y1="1534.6313" x2="1643.1896" y2="1396.5043" gradientTransform="matrix(1 0 0 -1 -763.66 1619.1201)">
	<stop  offset="0" style="stop-color:#F2F2F2;stop-opacity:0.4"/>
	<stop  offset="1" style="stop-color:#FFFFFF"/>
</linearGradient>
<polygon style="fill:url(#SVGID_00000068639998495214592030000016920079487116825985_);" points="959.3,84.5 799.8,176.6 
	959.3,268.7 "/>
<polygon class="st5" points="1118.5,176.2 959,268.3 1118.5,360.4 "/>
<polygon class="st5" points="959.1,84.6 1118.6,176.7 1118.6,-7.5 "/>
<linearGradient id="SVGID_00000174595778259161540870000005644164698125441922_" gradientUnits="userSpaceOnUse" x1="-511.6" y1="-980.9298" x2="-351.83" y2="-980.9298" gradientTransform="matrix(-1 0 0 1 447.66 972.8899)">
	<stop  offset="0" style="stop-color:#FFFFFF"/>
	<stop  offset="1" style="stop-color:#000000;stop-opacity:0.1"/>
</linearGradient>
<polygon style="fill:url(#SVGID_00000174595778259161540870000005644164698125441922_);" points="958.7,-100.1 799.5,-7.6 
	959.3,84.1 "/>
<polygon class="st4" points="958.7,-99.9 799,-191.6 799.5,-7.4 "/>
<polygon class="st1" points="959.4,83.8 799.7,-7.9 800.2,176.3 "/>
<linearGradient id="SVGID_00000000902475951553414080000004759147232119010983_" gradientUnits="userSpaceOnUse" x1="-670.67" y1="-980.8298" x2="-510.91" y2="-980.8298" gradientTransform="matrix(-1 0 0 1 447.66 972.8899)">
	<stop  offset="0" style="stop-color:#FFFFFF"/>
	<stop  offset="1" style="stop-color:#000000;stop-opacity:0.1"/>
</linearGradient>
<polygon style="fill:url(#SVGID_00000000902475951553414080000004759147232119010983_);" points="958.6,-100 959.1,84.2 
	1118.3,-8.4 "/>
<polygon class="st5" points="959.9,268.4 800.4,360.5 959.9,452.6 "/>
<polygon class="st5" points="959.9,268.6 800.4,176.5 800.4,360.7 "/>
<polygon class="st5" points="960,452.3 800.5,360.2 800.5,544.4 "/>
<polygon class="st5" points="959.7,268.5 959.7,452.7 1119.2,360.6 "/>
<polygon class="st5" points="641.1,268.5 641.1,452.7 800.6,360.6 "/>
<polygon class="st5" points="641.3,268.6 481.8,360.7 641.3,452.8 "/>
<polygon class="st5" points="800.5,360.3 641,452.4 800.5,544.5 "/>
<polygon class="st5" points="641.1,268.7 800.6,360.8 800.6,176.6 "/>
<polygon class="st5" points="-153.5,915.5 6,1007.6 6,823.4 "/>
<polygon class="st5" points="-153.4,915.4 -153.4,1099.6 6.1,1007.5 "/>
<polygon class="st5" points="5.6,823.4 5.6,1007.6 165.1,915.5 "/>
<polygon class="st5" points="-153.4,915.6 6.1,823.5 -153.4,731.4 "/>
<polygon class="st5" points="161.5,728.5 321,820.6 321,636.4 "/>
<linearGradient id="SVGID_00000127004703887529479220000014307190476934021505_" gradientUnits="userSpaceOnUse" x1="925.29" y1="798.6351" x2="1084.79" y2="798.6351" gradientTransform="matrix(1 0 0 -1 -763.66 1619.1201)">
	<stop  offset="0" style="stop-color:#FFFFFF"/>
	<stop  offset="1" style="stop-color:#E6E6E6;stop-opacity:0.1"/>
</linearGradient>
<polygon style="fill:url(#SVGID_00000127004703887529479220000014307190476934021505_);" points="161.6,728.4 161.6,912.6 
	321.1,820.5 "/>
<polygon class="st5" points="320.6,636.4 320.6,820.6 480.1,728.5 "/>
<polygon class="st5" points="161.6,728.6 321.1,636.5 161.6,544.4 "/>
<polygon class="st5" points="3.1,636.5 3.1,820.7 162.6,728.6 "/>
<polygon class="st1" points="3.3,636.6 -156.2,728.7 3.3,820.8 "/>
<polygon class="st5" points="162.5,728.3 3,820.4 162.5,912.5 "/>
<linearGradient id="SVGID_00000173868362872543915110000004744371362594084763_" gradientUnits="userSpaceOnUse" x1="806.6667" y1="1051.4966" x2="966.1624" y2="959.4091" gradientTransform="matrix(1 0 0 -1 -763.66 1619.1201)">
	<stop  offset="0" style="stop-color:#F2F2F2"/>
	<stop  offset="1" style="stop-color:#E6E6E6;stop-opacity:0.1"/>
</linearGradient>
<polygon style="fill:url(#SVGID_00000173868362872543915110000004744371362594084763_);" points="3.1,636.7 162.6,728.8 
	162.6,544.6 "/>
<linearGradient id="SVGID_00000178918478467962826270000000171912095581634216_" gradientUnits="userSpaceOnUse" x1="-352.96" y1="-979.5098" x2="-193.46" y2="-979.5098" gradientTransform="matrix(-1 0 0 1 447.66 972.8899)">
	<stop  offset="0" style="stop-color:#FFFFFF"/>
	<stop  offset="1" style="stop-color:#000000;stop-opacity:0.2"/>
</linearGradient>
<polygon style="fill:url(#SVGID_00000178918478467962826270000000171912095581634216_);" points="641.1,85.5 800.6,-6.6 
	641.1,-98.7 "/>
<polygon class="st4" points="641.1,85.3 800.6,177.4 800.6,-6.8 "/>
<polygon class="st3" points="641,-98.4 800.5,-6.3 800.5,-190.5 "/>
<linearGradient id="SVGID_00000141456168619380224240000013420107647545347202_" gradientUnits="userSpaceOnUse" x1="-193.62" y1="-979.6099" x2="-34.12" y2="-979.6099" gradientTransform="matrix(-1 0 0 1 447.66 972.8899)">
	<stop  offset="0" style="stop-color:#CCCCCC"/>
	<stop  offset="1" style="stop-color:#000000;stop-opacity:0.1"/>
</linearGradient>
<polygon style="fill:url(#SVGID_00000141456168619380224240000013420107647545347202_);" points="641.3,85.4 641.3,-98.8 
	481.8,-6.7 "/>
<linearGradient id="SVGID_00000043447973440233650830000009361208783309950631_" gradientUnits="userSpaceOnUse" x1="1164.5304" y1="1396.4944" x2="1084.7822" y2="1534.6213" gradientTransform="matrix(1 0 0 -1 -763.66 1619.1201)">
	<stop  offset="0" style="stop-color:#FFFFFF"/>
	<stop  offset="1" style="stop-color:#000000;stop-opacity:0.1"/>
</linearGradient>
<polygon style="fill:url(#SVGID_00000043447973440233650830000009361208783309950631_);" points="321.1,84.5 321.1,268.7 
	480.6,176.6 "/>
<linearGradient id="SVGID_00000078746120203240683560000015455541815786071717_" gradientUnits="userSpaceOnUse" x1="925.44" y1="1442.4351" x2="1084.9399" y2="1442.4351" gradientTransform="matrix(1 0 0 -1 -763.66 1619.1201)">
	<stop  offset="0" style="stop-color:#FFFFFF"/>
	<stop  offset="1" style="stop-color:#000000;stop-opacity:0.1"/>
</linearGradient>
<polygon style="fill:url(#SVGID_00000078746120203240683560000015455541815786071717_);" points="321.3,84.6 161.8,176.7 
	321.3,268.8 "/>
<polygon class="st1" points="480.5,176.3 321,268.4 480.5,360.5 "/>
<polygon class="st1" points="321.1,84.7 480.6,176.8 480.6,-7.4 "/>
</svg>
