<svg id="Layer_1" data-name="Layer 1" xmlns="http://www.w3.org/2000/svg" xmlns:xlink="http://www.w3.org/1999/xlink" viewBox="0 0 428 100"><defs><style>.cls-1{fill:url(#linear-gradient);}.cls-2{fill:url(#linear-gradient-2);}.cls-3{fill:url(#linear-gradient-3);}.cls-4{fill:url(#linear-gradient-4);}.cls-5{fill:none;}.cls-6{fill:url(#linear-gradient-5);}.cls-7{fill:url(#linear-gradient-6);}.cls-8{fill:url(#linear-gradient-7);}.cls-9{fill:#f2f2f2;}.cls-10{fill:url(#linear-gradient-8);}.cls-11{fill:#e6e6e6;}.cls-12{fill:url(#linear-gradient-9);}.cls-13{fill:url(#linear-gradient-10);}.cls-14{fill:url(#linear-gradient-11);}</style><linearGradient id="linear-gradient" x1="-2390.9" y1="917.06" x2="-2390.9" y2="791.19" gradientTransform="translate(-2390.28 848.89) rotate(180)" gradientUnits="userSpaceOnUse"><stop offset="0" stop-color="#fff"/><stop offset="1" stop-opacity="0.4"/></linearGradient><linearGradient id="linear-gradient-2" x1="809.38" y1="503.88" x2="809.38" y2="629.75" gradientTransform="translate(-808.66 -509.17)" gradientUnits="userSpaceOnUse"><stop offset="0" stop-color="#fff"/><stop offset="1" stop-opacity="0.1"/></linearGradient><linearGradient id="linear-gradient-3" x1="-2554.18" y1="854.12" x2="-2445.17" y2="854.12" xlink:href="#linear-gradient"/><linearGradient id="linear-gradient-4" x1="973.47" y1="629.68" x2="1082.48" y2="629.68" gradientTransform="translate(-808.66 -509.17)" gradientUnits="userSpaceOnUse"><stop offset="0" stop-color="#fff"/><stop offset="1" stop-color="#e6e6e6" stop-opacity="0.1"/></linearGradient><linearGradient id="linear-gradient-5" x1="1028.09" y1="629.75" x2="1028.09" y2="503.86" gradientTransform="translate(-808.66 -509.17)" gradientUnits="userSpaceOnUse"><stop offset="0" stop-color="#fff"/><stop offset="0.96" stop-color="#999" stop-opacity="0.13"/><stop offset="1" stop-color="#e6e6e6" stop-opacity="0.1"/></linearGradient><linearGradient id="linear-gradient-6" x1="1300.03" y1="566.12" x2="1245.53" y2="660.53" gradientTransform="translate(-808.66 -509.17)" gradientUnits="userSpaceOnUse"><stop offset="0" stop-color="#f2f2f2" stop-opacity="0.4"/><stop offset="1" stop-color="#fff"/></linearGradient><linearGradient id="linear-gradient-7" x1="-2881.64" y1="855.17" x2="-2772.45" y2="855.17" gradientTransform="translate(-2390.28 848.89) rotate(180)" xlink:href="#linear-gradient-2"/><linearGradient id="linear-gradient-8" x1="-2773.22" y1="854.2" x2="-2664.21" y2="854.2" gradientTransform="translate(-2390.28 848.89) rotate(180)" gradientUnits="userSpaceOnUse"><stop offset="0" stop-color="#fff"/><stop offset="1" stop-opacity="0.2"/></linearGradient><linearGradient id="linear-gradient-9" x1="-2664.32" y1="854.27" x2="-2555.31" y2="854.27" gradientTransform="translate(-2390.28 848.89) rotate(180)" gradientUnits="userSpaceOnUse"><stop offset="0" stop-color="#ccc"/><stop offset="1" stop-opacity="0.1"/></linearGradient><linearGradient id="linear-gradient-10" x1="918.4" y1="660.54" x2="863.9" y2="566.13" xlink:href="#linear-gradient-2"/><linearGradient id="linear-gradient-11" x1="754.99" y1="629.14" x2="864" y2="629.14" xlink:href="#linear-gradient-2"/></defs><polygon class="cls-1" points="-53.89 -5.25 55.12 57.7 55.12 -68.17 -53.89 -5.25"/><polygon class="cls-2" points="-53.78 -5.29 -53.78 120.58 55.23 57.63 -53.78 -5.29"/><polygon class="cls-3" points="54.89 -68.17 54.89 57.7 163.9 -5.25 54.89 -68.17"/><polygon class="cls-4" points="164.81 120.52 273.82 183.44 273.82 57.58 164.81 120.52"/><polygon class="cls-5" points="273.59 57.58 273.59 183.44 382.6 120.52 273.59 57.58"/><polygon class="cls-6" points="164.93 120.58 273.94 57.63 164.93 -5.31 164.93 120.58"/><polygon class="cls-7" points="491.38 56.95 382.37 119.89 491.38 182.82 491.38 56.95"/><polygon class="cls-8" points="491 -69.22 382.17 -5.96 491.36 56.66 491 -69.22"/><polygon class="cls-9" points="491.48 56.45 382.29 -6.17 382.65 119.7 491.48 56.45"/><polygon class="cls-10" points="273.94 57.63 382.94 -5.31 273.93 -68.25 273.94 57.63"/><polygon class="cls-11" points="273.94 57.49 382.95 120.44 382.95 -5.44 273.94 57.49"/><polygon class="cls-12" points="274.04 57.55 274.04 -68.31 165.03 -5.38 274.04 57.55"/><polygon class="cls-13" points="55.23 56.97 55.23 182.84 164.24 119.89 55.23 56.97"/><polygon class="cls-14" points="55.34 57.03 -53.67 119.97 55.34 182.91 55.34 57.03"/><polygon class="cls-9" points="55.24 57.09 164.25 120.03 164.25 -5.85 55.24 57.09"/></svg>