<svg id="Layer_1" data-name="Layer 1" xmlns="http://www.w3.org/2000/svg" xmlns:xlink="http://www.w3.org/1999/xlink" viewBox="0 0 1080 100"><defs><style>.cls-1{fill:url(#linear-gradient);}.cls-2{fill:url(#linear-gradient-2);}.cls-3{fill:url(#linear-gradient-3);}.cls-4{fill:url(#linear-gradient-4);}.cls-5{fill:url(#linear-gradient-5);}.cls-6{fill:#999;}.cls-7{fill:url(#linear-gradient-6);}.cls-8{fill:url(#linear-gradient-7);}.cls-9{fill:url(#linear-gradient-8);}.cls-10{fill:url(#linear-gradient-9);}.cls-11{fill:none;}.cls-12{fill:url(#linear-gradient-10);}.cls-13{fill:url(#linear-gradient-11);}.cls-14{fill:url(#linear-gradient-12);}.cls-15{fill:#f2f2f2;}.cls-16{fill:url(#linear-gradient-13);}.cls-17{fill:url(#linear-gradient-14);}.cls-18{fill:#e6e6e6;}.cls-19{fill:url(#linear-gradient-15);}.cls-20{fill:url(#linear-gradient-16);}.cls-21{fill:url(#linear-gradient-17);}</style><linearGradient id="linear-gradient" x1="689.91" y1="-453.95" x2="689.91" y2="-269.75" gradientTransform="translate(-763.66 539.12)" gradientUnits="userSpaceOnUse"><stop offset="0" stop-opacity="0.4"/><stop offset="1" stop-color="#fff"/></linearGradient><linearGradient id="linear-gradient-2" x1="769.26" y1="-361.85" x2="928.76" y2="-361.85" gradientTransform="translate(-763.66 539.12)" gradientUnits="userSpaceOnUse"><stop offset="0" stop-color="#ccc"/><stop offset="1" stop-opacity="0.4"/></linearGradient><linearGradient id="linear-gradient-3" x1="-396.44" y1="2807.16" x2="-236.94" y2="2807.16" gradientTransform="translate(-390.34 2892.44) rotate(180)" gradientUnits="userSpaceOnUse"><stop offset="0" stop-color="#fff"/><stop offset="1" stop-opacity="0.1"/></linearGradient><linearGradient id="linear-gradient-4" x1="-551.94" y1="2900.26" x2="-392.44" y2="2900.26" xlink:href="#linear-gradient-3"/><linearGradient id="linear-gradient-5" x1="765.76" y1="-455.05" x2="925.26" y2="-455.05" gradientTransform="translate(-763.66 539.12)" xlink:href="#linear-gradient-3"/><linearGradient id="linear-gradient-6" x1="-631.59" y1="2991.26" x2="-631.59" y2="2807.06" gradientTransform="translate(-390.34 2892.44) rotate(180)" gradientUnits="userSpaceOnUse"><stop offset="0" stop-color="#fff"/><stop offset="1" stop-opacity="0.4"/></linearGradient><linearGradient id="linear-gradient-7" x1="1005.01" y1="-545.95" x2="1005.01" y2="-361.75" gradientTransform="translate(-763.66 539.12)" xlink:href="#linear-gradient-3"/><linearGradient id="linear-gradient-8" x1="-870.44" y1="2899.16" x2="-710.94" y2="2899.16" xlink:href="#linear-gradient-6"/><linearGradient id="linear-gradient-9" x1="1245.16" y1="-361.85" x2="1404.66" y2="-361.85" gradientTransform="translate(-763.66 539.12)" gradientUnits="userSpaceOnUse"><stop offset="0" stop-color="#fff"/><stop offset="1" stop-color="#e6e6e6" stop-opacity="0.1"/></linearGradient><linearGradient id="linear-gradient-10" x1="1325.01" y1="-361.75" x2="1325.01" y2="-545.95" gradientTransform="translate(-763.66 539.12)" gradientUnits="userSpaceOnUse"><stop offset="0" stop-color="#fff"/><stop offset="0.96" stop-color="#999" stop-opacity="0.13"/><stop offset="1" stop-color="#e6e6e6" stop-opacity="0.1"/></linearGradient><linearGradient id="linear-gradient-11" x1="1722.97" y1="-454.84" x2="1643.21" y2="-316.69" gradientTransform="translate(-763.66 539.12)" gradientUnits="userSpaceOnUse"><stop offset="0" stop-color="#f2f2f2" stop-opacity="0.4"/><stop offset="1" stop-color="#fff"/></linearGradient><linearGradient id="linear-gradient-12" x1="-1349.64" y1="2900.66" x2="-1189.84" y2="2900.66" xlink:href="#linear-gradient-3"/><linearGradient id="linear-gradient-13" x1="-1508.64" y1="2900.56" x2="-1348.94" y2="2900.56" xlink:href="#linear-gradient-3"/><linearGradient id="linear-gradient-14" x1="-1190.94" y1="2899.26" x2="-1031.44" y2="2899.26" gradientTransform="translate(-390.34 2892.44) rotate(180)" gradientUnits="userSpaceOnUse"><stop offset="0" stop-color="#fff"/><stop offset="1" stop-opacity="0.2"/></linearGradient><linearGradient id="linear-gradient-15" x1="-1031.64" y1="2899.36" x2="-872.14" y2="2899.36" gradientTransform="translate(-390.34 2892.44) rotate(180)" gradientUnits="userSpaceOnUse"><stop offset="0" stop-color="#ccc"/><stop offset="1" stop-opacity="0.1"/></linearGradient><linearGradient id="linear-gradient-16" x1="1164.51" y1="-316.69" x2="1084.75" y2="-454.84" gradientTransform="translate(-763.66 539.12)" xlink:href="#linear-gradient-3"/><linearGradient id="linear-gradient-17" x1="925.46" y1="-362.65" x2="1084.96" y2="-362.65" gradientTransform="translate(-763.66 539.12)" xlink:href="#linear-gradient-3"/></defs><polygon class="cls-1" points="-153.5 177.27 6 269.37 6 85.17 -153.5 177.27"/><polygon class="cls-2" points="5.6 85.17 5.6 269.37 165.1 177.27 5.6 85.17"/><polygon class="cls-3" points="-153.4 177.37 6.1 85.27 -153.4 -6.83 -153.4 177.37"/><polygon class="cls-4" points="2.1 84.27 161.6 -7.83 2.1 -99.93 2.1 84.27"/><polygon class="cls-5" points="2.1 84.07 161.6 176.17 161.6 -8.03 2.1 84.07"/><polygon class="cls-6" points="2.3 84.17 2.3 -100.03 -157.2 -7.93 2.3 84.17"/><polygon class="cls-7" points="161.5 -6.73 321 85.37 321 -98.83 161.5 -6.73"/><polygon class="cls-8" points="161.6 -6.83 161.6 177.37 321.1 85.27 161.6 -6.83"/><polygon class="cls-9" points="320.6 -98.83 320.6 85.37 480.1 -6.73 320.6 -98.83"/><polygon class="cls-10" points="481.5 177.27 641 269.37 641 85.17 481.5 177.27"/><polygon class="cls-11" points="640.6 85.17 640.6 269.37 800.1 177.27 640.6 85.17"/><polygon class="cls-12" points="481.6 177.37 641.1 85.27 481.6 -6.83 481.6 177.37"/><polygon class="cls-11" points="959.1 84.17 959.1 268.37 1118.6 176.27 959.1 84.17"/><polygon class="cls-13" points="959.3 84.27 799.8 176.37 959.3 268.47 959.3 84.27"/><polygon class="cls-11" points="959.1 84.37 1118.6 176.47 1118.6 -7.73 959.1 84.37"/><polygon class="cls-14" points="958.7 -100.33 799.5 -7.83 959.3 83.87 958.7 -100.33"/><polygon class="cls-15" points="959.4 83.57 799.7 -8.13 800.2 176.07 959.4 83.57"/><polygon class="cls-16" points="958.6 -100.23 959.1 83.97 1118.3 -8.63 958.6 -100.23"/><polygon class="cls-17" points="641.1 85.27 800.6 -6.83 641.1 -98.93 641.1 85.27"/><polygon class="cls-18" points="641.1 85.07 800.6 177.17 800.6 -7.03 641.1 85.07"/><polygon class="cls-19" points="641.3 85.17 641.3 -99.03 481.8 -6.93 641.3 85.17"/><polygon class="cls-20" points="321.1 84.27 321.1 268.47 480.6 176.37 321.1 84.27"/><polygon class="cls-21" points="321.3 84.37 161.8 176.47 321.3 268.57 321.3 84.37"/><polygon class="cls-15" points="321.1 84.47 480.6 176.57 480.6 -7.63 321.1 84.47"/></svg>