<?xml version="1.0" encoding="utf-8"?>
<!-- Generator: Adobe Illustrator 26.0.1, SVG Export Plug-In . SVG Version: 6.00 Build 0)  -->
<svg version="1.1" id="Layer_1" xmlns="http://www.w3.org/2000/svg" xmlns:xlink="http://www.w3.org/1999/xlink" x="0px" y="0px"
	 viewBox="0 0 1080 100" style="enable-background:new 0 0 1080 100;" xml:space="preserve">
<style type="text/css">
	.st0{opacity:0.5;}
	.st1{clip-path:url(#SVGID_00000111875519852702185750000010480272056488919710_);}
	.st2{fill:url(#SVGID_00000093882002466929222040000014875619738000040088_);}
	.st3{fill:url(#SVGID_00000013155005703285616990000000165418746020032175_);}
</style>
<g>
	<g class="st0">
		<g>
			<defs>
				<path id="SVGID_1_" d="M1.4,7.1c-59.4,173.3,1261.7,704.7,1163.7,1059.9c-33.1,119.9-218.2,183.8-215,188.5
					c4.6,6.9,319.3-248.2,762.9-397.6c34.1-11.5,14.8-4.1,268-79.5c382.8-114,574.3-171.4,577.3-191.5
					C2588.4,386.8,81.3-226,1.4,7.1z"/>
			</defs>
			<clipPath id="SVGID_00000122715556165523671910000013789738705477285055_">
				<use xlink:href="#SVGID_1_"  style="overflow:visible;"/>
			</clipPath>
			<g style="clip-path:url(#SVGID_00000122715556165523671910000013789738705477285055_);">
				<g>
					<defs>
						<rect id="SVGID_00000023252760332731110610000001506226685858603916_" x="-5.6" y="-50" width="2569.1" height="1310.6"/>
					</defs>
					<clipPath id="SVGID_00000057108671372603690790000002935902535861979071_">
						<use xlink:href="#SVGID_00000023252760332731110610000001506226685858603916_"  style="overflow:visible;"/>
					</clipPath>
					<g style="clip-path:url(#SVGID_00000057108671372603690790000002935902535861979071_);">
						
							<image style="overflow:visible;" width="5353" height="2731" xlink:href="9394B7DC31E639EA.jpg"  transform="matrix(0.48 0 0 0.48 -5.76 -50.24)">
						</image>
					</g>
				</g>
			</g>
		</g>
	</g>
	
		<linearGradient id="SVGID_00000152231276409513883380000008674773205017371301_" gradientUnits="userSpaceOnUse" x1="315.4707" y1="1254.7333" x2="2119.5181" y2="1254.7333">
		<stop  offset="0" style="stop-color:#FFFFFF"/>
		<stop  offset="0.7139" style="stop-color:#008A73;stop-opacity:0.5"/>
	</linearGradient>
	<path style="fill:url(#SVGID_00000152231276409513883380000008674773205017371301_);" d="M331.4,1143.1
		C438.1,551.6,1106.4,67,1604,257.1c385.9,147.4,565.1,660.8,503.7,1062.8c-88.3,578.4-702.1,1105.3-1213.5,945.5
		C476.4,2134.8,251.7,1584.8,331.4,1143.1z"/>
	
		<linearGradient id="SVGID_00000141438933292729486910000007457748160161830805_" gradientUnits="userSpaceOnUse" x1="-755.2917" y1="-102.9316" x2="1189.906" y2="-102.9316" gradientTransform="matrix(-0.9841 0.1774 -0.1774 -0.9841 1188.201 449.7076)">
		<stop  offset="0" style="stop-color:#FFFFFF;stop-opacity:0.18"/>
		<stop  offset="0.8399" style="stop-color:#008A73;stop-opacity:0.5"/>
	</linearGradient>
	<path style="fill:url(#SVGID_00000141438933292729486910000007457748160161830805_);" d="M166.3,1347.3
		c43.8,86.2,1832.9-525.1,1784.1-925.6c-29.7-243.9-732-336.5-978.9-355C795.7,53.5,106.1,2-11.4,281.9
		c-117.7,280.2,400.7,743,220.4,1007.3C184.6,1325,161.1,1337,166.3,1347.3z"/>
</g>
</svg>
