<svg id="Layer_1" data-name="Layer 1" xmlns="http://www.w3.org/2000/svg" xmlns:xlink="http://www.w3.org/1999/xlink" viewBox="0 0 800 100"><defs><style>.cls-1{fill:url(#linear-gradient);}.cls-2{fill:url(#linear-gradient-2);}.cls-3{fill:url(#linear-gradient-3);}.cls-4{fill:url(#linear-gradient-4);}.cls-5{fill:url(#linear-gradient-5);}.cls-6{fill:none;}.cls-7{fill:url(#linear-gradient-6);}.cls-8{fill:url(#linear-gradient-7);}.cls-9{fill:#f2f2f2;}.cls-10{fill:#e6e6e6;}.cls-11{fill:url(#linear-gradient-8);}.cls-12{fill:url(#linear-gradient-9);}</style><linearGradient id="linear-gradient" x1="446.28" y1="67.91" x2="605.78" y2="67.91" gradientTransform="translate(-602.66 24.12)" gradientUnits="userSpaceOnUse"><stop offset="0" stop-color="#ccc"/><stop offset="1" stop-opacity="0.4"/></linearGradient><linearGradient id="linear-gradient-2" x1="682.03" y1="250.99" x2="682.03" y2="66.82" gradientTransform="translate(-602.66 24.12)" gradientUnits="userSpaceOnUse"><stop offset="0" stop-color="#fff"/><stop offset="1" stop-opacity="0.1"/></linearGradient><linearGradient id="linear-gradient-3" x1="443.79" y1="158.11" x2="603.29" y2="158.11" xlink:href="#linear-gradient-2"/><linearGradient id="linear-gradient-4" x1="682.03" y1="-116.18" x2="682.03" y2="67.99" xlink:href="#linear-gradient-2"/><linearGradient id="linear-gradient-5" x1="922.12" y1="67.9" x2="1081.62" y2="67.9" gradientTransform="translate(-602.66 24.12)" gradientUnits="userSpaceOnUse"><stop offset="0" stop-color="#fff"/><stop offset="1" stop-color="#e6e6e6" stop-opacity="0.1"/></linearGradient><linearGradient id="linear-gradient-6" x1="1002.03" y1="67.99" x2="1002.03" y2="-116.18" gradientTransform="translate(-602.66 24.12)" gradientUnits="userSpaceOnUse"><stop offset="0" stop-color="#fff"/><stop offset="0.96" stop-color="#999" stop-opacity="0.13"/><stop offset="1" stop-color="#e6e6e6" stop-opacity="0.1"/></linearGradient><linearGradient id="linear-gradient-7" x1="1399.94" y1="-25.09" x2="1320.19" y2="113.04" gradientTransform="translate(-602.66 24.12)" gradientUnits="userSpaceOnUse"><stop offset="0" stop-color="#f2f2f2" stop-opacity="0.4"/><stop offset="1" stop-color="#fff"/></linearGradient><linearGradient id="linear-gradient-8" x1="841.53" y1="113.05" x2="761.78" y2="-25.08" xlink:href="#linear-gradient-2"/><linearGradient id="linear-gradient-9" x1="602.44" y1="67.11" x2="761.94" y2="67.11" xlink:href="#linear-gradient-2"/></defs><polygon class="cls-1" points="-156.38 -0.06 -156.38 184.12 3.12 92.03 -156.38 -0.06"/><polygon class="cls-2" points="-0.38 275.12 159.12 183.03 -0.38 90.94 -0.38 275.12"/><polygon class="cls-3" points="-158.87 182.24 0.63 274.31 0.63 90.14 -158.87 182.24"/><polygon class="cls-4" points="-0.38 -92.06 -0.38 92.11 159.12 0.03 -0.38 -92.06"/><polygon class="cls-5" points="319.46 92.03 478.96 184.12 478.95 -0.07 319.46 92.03"/><polygon class="cls-6" points="319.62 91.94 319.62 276.12 479.12 184.03 319.62 91.94"/><polygon class="cls-6" points="478.62 -0.07 478.62 184.12 638.12 92.03 478.62 -0.07"/><polygon class="cls-7" points="319.62 92.11 479.12 0.03 319.62 -92.06 319.62 92.11"/><polygon class="cls-6" points="797.12 -1.07 797.12 183.1 956.62 91.02 797.12 -1.07"/><polygon class="cls-8" points="797.28 -0.96 637.78 91.11 797.28 183.21 797.28 -0.96"/><polygon class="cls-6" points="956.45 90.72 796.96 182.81 956.46 274.9 956.45 90.72"/><polygon class="cls-6" points="797.13 -0.89 956.63 91.2 956.63 -92.97 797.13 -0.89"/><polygon class="cls-9" points="797.42 -1.7 637.66 -93.33 638.19 90.84 797.42 -1.7"/><polygon class="cls-6" points="797.86 183.18 638.36 91.08 638.36 275.25 797.86 183.18"/><polygon class="cls-6" points="479.13 183.22 638.63 275.31 638.63 91.14 479.13 183.22"/><polygon class="cls-10" points="479.13 -0.17 638.63 91.92 638.63 -92.27 479.13 -0.17"/><polygon class="cls-11" points="159.12 -0.95 159.12 183.22 318.62 91.13 159.12 -0.95"/><polygon class="cls-12" points="159.28 -0.85 -0.22 91.22 159.28 183.31 159.28 -0.85"/><polygon class="cls-9" points="318.45 90.83 158.96 182.93 318.46 275.01 318.45 90.83"/><polygon class="cls-9" points="159.13 -0.78 318.63 91.31 318.63 -92.86 159.13 -0.78"/></svg>